<?xml version="1.0" encoding="utf-8" ?>
<svg baseProfile="full" height="98mm" version="1.1" viewBox="0,0,200,98" width="200mm" xmlns="http://www.w3.org/2000/svg" xmlns:ev="http://www.w3.org/2001/xml-events" xmlns:xlink="http://www.w3.org/1999/xlink"><defs /><rect fill="#222222" height="98" width="200" x="0" y="0" /><text fill="#FFFFFF" style="font-size:12px; font-family:Arial; font-weight:bold;" x="10" y="20">2024 Running</text><text fill="#FFFFFF" style="font-size:4px; font-family:Arial" x="10" y="78">ATHLETE</text><text fill="#FFFFFF" style="font-size:9px; font-family:Arial" x="10" y="88">Conge</text><text fill="#FFFFFF" style="font-size:4px; font-family:Arial" x="120" y="78">STATISTICS</text><text fill="#FFFFFF" style="font-size:3px; font-family:Arial" x="120" y="83">Number: 402</text><text fill="#FFFFFF" style="font-size:3px; font-family:Arial" x="120" y="88">Weekly: 7.7</text><text fill="#FFFFFF" style="font-size:3px; font-family:Arial" x="141" y="83">Total: 3465.1 km</text><text fill="#FFFFFF" style="font-size:3px; font-family:Arial" x="141" y="88">Avg: 8.6 km</text><text fill="#FFFFFF" style="font-size:3px; font-family:Arial" x="167" y="83">Min: 0.6 km</text><text fill="#FFFFFF" style="font-size:3px; font-family:Arial" x="167" y="88">Max: 42.2 km</text><text dominant-baseline="hanging" fill="#FFFFFF" style="font-size:10.0px; font-family:Arial;" x="10" y="30">2024</text><text dominant-baseline="hanging" fill="#FFFFFF" style="font-size:4.125px; font-family:Arial;" x="175" y="35">3465.1 km</text><text fill="#FFFFFF" style="font-size:2.5px; font-family:Arial" x="10.0" y="44">Jan</text><text fill="#FFFFFF" style="font-size:2.5px; font-family:Arial" x="25.5" y="44">Feb</text><text fill="#FFFFFF" style="font-size:2.5px; font-family:Arial" x="41.0" y="44">Mar</text><text fill="#FFFFFF" style="font-size:2.5px; font-family:Arial" x="56.5" y="44">Apr</text><text fill="#FFFFFF" style="font-size:2.5px; font-family:Arial" x="72.0" y="44">May</text><text fill="#FFFFFF" style="font-size:2.5px; font-family:Arial" x="87.5" y="44">Jun</text><text fill="#FFFFFF" style="font-size:2.5px; font-family:Arial" x="103.0" y="44">Jul</text><text fill="#FFFFFF" style="font-size:2.5px; font-family:Arial" x="118.5" y="44">Aug</text><text fill="#FFFFFF" style="font-size:2.5px; font-family:Arial" x="134.0" y="44">Sep</text><text fill="#FFFFFF" style="font-size:2.5px; font-family:Arial" x="149.5" y="44">Oct</text><text fill="#FFFFFF" style="font-size:2.5px; font-family:Arial" x="165.0" y="44">Nov</text><text fill="#FFFFFF" style="font-size:2.5px; font-family:Arial" x="180.5" y="44">Dec</text><rect fill="#4dd2ff" height="2.6" width="2.6" x="10.0" y="45.5"><title>2024-01-01 8.0 km</title></rect><rect fill="#4dd2ff" height="2.6" width="2.6" x="10.0" y="49.0"><title>2024-01-02 3.3 km</title></rect><rect fill="#4dd2ff" height="2.6" width="2.6" x="10.0" y="52.5"><title>2024-01-03 5.7 km</title></rect><rect fill="#4dd2ff" height="2.6" width="2.6" x="10.0" y="56.0"><title>2024-01-04 3.2 km</title></rect><rect fill="#4dd2ff" height="2.6" width="2.6" x="10.0" y="59.5"><title>2024-01-05 5.9 km</title></rect><rect fill="#4dd2ff" height="2.6" width="2.6" x="10.0" y="63.0"><title>2024-01-06 7.7 km</title></rect><rect fill="#4dd2ff" height="2.6" width="2.6" x="10.0" y="66.5"><title>2024-01-07 6.8 km</title></rect><rect fill="#4dd2ff" height="2.6" width="2.6" x="13.5" y="45.5"><title>2024-01-08 8.1 km</title></rect><rect fill="#4dd2ff" height="2.6" width="2.6" x="13.5" y="49.0"><title>2024-01-09 5.3 km</title></rect><rect fill="#4dd2ff" height="2.6" width="2.6" x="13.5" y="52.5"><title>2024-01-10 5.4 km</title></rect><rect fill="#4dd2ff" height="2.6" width="2.6" x="13.5" y="56.0"><title>2024-01-11 5.5 km</title></rect><rect fill="#4dd2ff" height="2.6" width="2.6" x="13.5" y="59.5"><title>2024-01-12 5.4 km</title></rect><rect fill="#4dd2ff" height="2.6" width="2.6" x="13.5" y="63.0"><title>2024-01-13 7.8 km</title></rect><rect fill="#4dd2ff" height="2.6" width="2.6" x="13.5" y="66.5"><title>2024-01-14 5.8 km</title></rect><rect fill="#4dd2ff" height="2.6" width="2.6" x="17.0" y="45.5"><title>2024-01-15 4.0 km</title></rect><rect fill="#4dd2ff" height="2.6" width="2.6" x="17.0" y="49.0"><title>2024-01-16 3.1 km</title></rect><rect fill="#4dd2ff" height="2.6" width="2.6" x="17.0" y="52.5"><title>2024-01-17 5.8 km</title></rect><rect fill="#4dd2ff" height="2.6" width="2.6" x="17.0" y="56.0"><title>2024-01-18 4.4 km</title></rect><rect fill="#4dd2ff" height="2.6" width="2.6" x="17.0" y="59.5"><title>2024-01-19 5.8 km</title></rect><rect fill="#ffb400" height="2.6" width="2.6" x="17.0" y="63.0"><title>2024-01-20 12.9 km</title></rect><rect fill="#4dd2ff" height="2.6" width="2.6" x="17.0" y="66.5"><title>2024-01-21 5.4 km</title></rect><rect fill="#ffc500" height="2.6" width="2.6" x="20.5" y="45.5"><title>2024-01-22 10.2 km</title></rect><rect fill="#4dd2ff" height="2.6" width="2.6" x="20.5" y="49.0"><title>2024-01-23 9.0 km</title></rect><rect fill="#ffab00" height="2.6" width="2.6" x="20.5" y="52.5"><title>2024-01-24 14.6 km</title></rect><rect fill="#4dd2ff" height="2.6" width="2.6" x="20.5" y="56.0"><title>2024-01-25 5.9 km</title></rect><rect fill="#4dd2ff" height="2.6" width="2.6" x="20.5" y="59.5"><title>2024-01-26 8.1 km</title></rect><rect fill="#ffb400" height="2.6" width="2.6" x="20.5" y="63.0"><title>2024-01-27 13.1 km</title></rect><rect fill="#ffab00" height="2.6" width="2.6" x="20.5" y="66.5"><title>2024-01-28 14.5 km</title></rect><rect fill="#4dd2ff" height="2.6" width="2.6" x="24.0" y="45.5"><title>2024-01-29 5.3 km</title></rect><rect fill="#4dd2ff" height="2.6" width="2.6" x="24.0" y="49.0"><title>2024-01-30 2.2 km</title></rect><rect fill="#4dd2ff" height="2.6" width="2.6" x="24.0" y="52.5"><title>2024-01-31 5.3 km</title></rect><rect fill="#4dd2ff" height="2.6" width="2.6" x="24.0" y="56.0"><title>2024-02-01 8.3 km</title></rect><rect fill="#4dd2ff" height="2.6" width="2.6" x="24.0" y="59.5"><title>2024-02-02 4.2 km</title></rect><rect fill="#ffb400" height="2.6" width="2.6" x="24.0" y="63.0"><title>2024-02-03 13.1 km</title></rect><rect fill="red" height="2.6" width="2.6" x="24.0" y="66.5"><title>2024-02-04 21.2 km</title></rect><rect fill="#4dd2ff" height="2.6" width="2.6" x="27.5" y="45.5"><title>2024-02-05 3.6 km</title></rect><rect fill="#ffb400" height="2.6" width="2.6" x="27.5" y="49.0"><title>2024-02-06 12.9 km</title></rect><rect fill="#4dd2ff" height="2.6" width="2.6" x="27.5" y="52.5"><title>2024-02-07 3.4 km</title></rect><rect fill="#ffab00" height="2.6" width="2.6" x="27.5" y="56.0"><title>2024-02-08 14.5 km</title></rect><rect fill="#4dd2ff" height="2.6" width="2.6" x="27.5" y="59.5"><title>2024-02-09 3.5 km</title></rect><rect fill="#4dd2ff" height="2.6" width="2.6" x="27.5" y="63.0"><title>2024-02-10 7.2 km</title></rect><rect fill="#ff8d00" height="2.6" width="2.6" x="27.5" y="66.5"><title>2024-02-11 19.4 km</title></rect><rect fill="#4dd2ff" height="2.6" width="2.6" x="31.0" y="45.5"><title>2024-02-12 3.6 km</title></rect><rect fill="#ffb500" height="2.6" width="2.6" x="31.0" y="49.0"><title>2024-02-13 12.9 km</title></rect><rect fill="#4dd2ff" height="2.6" width="2.6" x="31.0" y="52.5"><title>2024-02-14 5.0 km</title></rect><rect fill="#ffa100" height="2.6" width="2.6" x="31.0" y="56.0"><title>2024-02-15 16.1 km</title></rect><rect fill="#4dd2ff" height="2.6" width="2.6" x="31.0" y="59.5"><title>2024-02-16 4.2 km</title></rect><rect fill="#ffa900" height="2.6" width="2.6" x="31.0" y="63.0"><title>2024-02-17 14.8 km</title></rect><rect fill="red" height="2.6" width="2.6" x="31.0" y="66.5"><title>2024-02-18 42.3 km</title></rect><rect fill="#4dd2ff" height="2.6" width="2.6" x="34.5" y="45.5"><title>2024-02-19 3.5 km</title></rect><rect fill="#ffa100" height="2.6" width="2.6" x="34.5" y="49.0"><title>2024-02-20 16.1 km</title></rect><rect fill="#4dd2ff" height="2.6" width="2.6" x="34.5" y="52.5"><title>2024-02-21 6.5 km</title></rect><rect fill="#ffb500" height="2.6" width="2.6" x="34.5" y="56.0"><title>2024-02-22 12.9 km</title></rect><rect fill="#4dd2ff" height="2.6" width="2.6" x="34.5" y="59.5"><title>2024-02-23 1.9 km</title></rect><rect fill="#4dd2ff" height="2.6" width="2.6" x="34.5" y="63.0"><title>2024-02-24 6.5 km</title></rect><rect fill="red" height="2.6" width="2.6" x="34.5" y="66.5"><title>2024-02-25 22.6 km</title></rect><rect fill="#4dd2ff" height="2.6" width="2.6" x="38.0" y="45.5"><title>2024-02-26 3.4 km</title></rect><rect fill="#ffb500" height="2.6" width="2.6" x="38.0" y="49.0"><title>2024-02-27 12.9 km</title></rect><rect fill="#4dd2ff" height="2.6" width="2.6" x="38.0" y="52.5"><title>2024-02-28 8.1 km</title></rect><rect fill="#ffa100" height="2.6" width="2.6" x="38.0" y="56.0"><title>2024-02-29 16.1 km</title></rect><rect fill="#4dd2ff" height="2.6" width="2.6" x="38.0" y="59.5"><title>2024-03-01 2.6 km</title></rect><rect fill="#4dd2ff" height="2.6" width="2.6" x="38.0" y="63.0"><title>2024-03-02 6.5 km</title></rect><rect fill="red" height="2.6" width="2.6" x="38.0" y="66.5"><title>2024-03-03 24.1 km</title></rect><rect fill="#4dd2ff" height="2.6" width="2.6" x="41.5" y="45.5"><title>2024-03-04 3.3 km</title></rect><rect fill="#ffab00" height="2.6" width="2.6" x="41.5" y="49.0"><title>2024-03-05 14.5 km</title></rect><rect fill="#4dd2ff" height="2.6" width="2.6" x="41.5" y="52.5"><title>2024-03-06 8.1 km</title></rect><rect fill="#ffa100" height="2.6" width="2.6" x="41.5" y="56.0"><title>2024-03-07 16.1 km</title></rect><rect fill="#4dd2ff" height="2.6" width="2.6" x="41.5" y="59.5"><title>2024-03-08 3.8 km</title></rect><rect fill="#4dd2ff" height="2.6" width="2.6" x="41.5" y="63.0"><title>2024-03-09 8.1 km</title></rect><rect fill="red" height="2.6" width="2.6" x="41.5" y="66.5"><title>2024-03-10 25.8 km</title></rect><rect fill="#4dd2ff" height="2.6" width="2.6" x="45.0" y="45.5"><title>2024-03-11 3.2 km</title></rect><rect fill="#ffb500" height="2.6" width="2.6" x="45.0" y="49.0"><title>2024-03-12 12.9 km</title></rect><rect fill="#4dd2ff" height="2.6" width="2.6" x="45.0" y="52.5"><title>2024-03-13 8.1 km</title></rect><rect fill="#ffb500" height="2.6" width="2.6" x="45.0" y="56.0"><title>2024-03-14 12.9 km</title></rect><rect fill="#4dd2ff" height="2.6" width="2.6" x="45.0" y="59.5"><title>2024-03-15 3.2 km</title></rect><rect fill="#4dd2ff" height="2.6" width="2.6" x="45.0" y="63.0"><title>2024-03-16 6.5 km</title></rect><rect fill="#ffb900" height="2.6" width="2.6" x="45.0" y="66.5"><title>2024-03-17 12.2 km</title></rect><rect fill="#4dd2ff" height="2.6" width="2.6" x="48.5" y="45.5"><title>2024-03-18 3.3 km</title></rect><rect fill="#ffa100" height="2.6" width="2.6" x="48.5" y="49.0"><title>2024-03-19 16.1 km</title></rect><rect fill="#4dd2ff" height="2.6" width="2.6" x="48.5" y="52.5"><title>2024-03-20 6.5 km</title></rect><rect fill="#ff9700" height="2.6" width="2.6" x="48.5" y="56.0"><title>2024-03-21 17.7 km</title></rect><rect fill="#4dd2ff" height="2.6" width="2.6" x="48.5" y="59.5"><title>2024-03-22 3.2 km</title></rect><rect fill="#ffbf00" height="2.6" width="2.6" x="48.5" y="63.0"><title>2024-03-23 11.3 km</title></rect><rect fill="red" height="2.6" width="2.6" x="48.5" y="66.5"><title>2024-03-24 29.0 km</title></rect><rect fill="#4dd2ff" height="2.6" width="2.6" x="52.0" y="45.5"><title>2024-03-25 3.3 km</title></rect><rect fill="#ffb500" height="2.6" width="2.6" x="52.0" y="49.0"><title>2024-03-26 12.9 km</title></rect><rect fill="#ff8d00" height="2.6" width="2.6" x="52.0" y="52.5"><title>2024-03-27 19.3 km</title></rect><rect fill="#4dd2ff" height="2.6" width="2.6" x="52.0" y="56.0"><title>2024-03-28 3.3 km</title></rect><rect fill="#ffa100" height="2.6" width="2.6" x="52.0" y="59.5"><title>2024-03-29 16.1 km</title></rect><rect fill="#4dd2ff" height="2.6" width="2.6" x="52.0" y="63.0"><title>2024-03-30 8.1 km</title></rect><rect fill="red" height="2.6" width="2.6" x="52.0" y="66.5"><title>2024-03-31 32.2 km</title></rect><rect fill="#4dd2ff" height="2.6" width="2.6" x="55.5" y="45.5"><title>2024-04-01 3.3 km</title></rect><rect fill="#4dd2ff" height="2.6" width="2.6" x="55.5" y="49.0"><title>2024-04-02 9.7 km</title></rect><rect fill="red" height="2.6" width="2.6" x="55.5" y="52.5"><title>2024-04-03 22.6 km</title></rect><rect fill="#4dd2ff" height="2.6" width="2.6" x="55.5" y="56.0"><title>2024-04-04 9.7 km</title></rect><rect fill="#4dd2ff" height="2.6" width="2.6" x="55.5" y="59.5"><title>2024-04-05 9.7 km</title></rect><rect fill="#4dd2ff" height="2.6" width="2.6" x="55.5" y="63.0"><title>2024-04-06 3.3 km</title></rect><rect fill="#ffb400" height="2.6" width="2.6" x="55.5" y="66.5"><title>2024-04-07 13.1 km</title></rect><rect fill="red" height="2.6" width="2.6" x="59.0" y="45.5"><title>2024-04-08 27.1 km</title></rect><rect fill="#4dd2ff" height="2.6" width="2.6" x="59.0" y="49.0"><title>2024-04-09 3.1 km</title></rect><rect fill="#ffb500" height="2.6" width="2.6" x="59.0" y="52.5"><title>2024-04-10 12.9 km</title></rect><rect fill="#4dd2ff" height="2.6" width="2.6" x="59.0" y="56.0"><title>2024-04-11 8.1 km</title></rect><rect fill="#4dd2ff" height="2.6" width="2.6" x="59.0" y="59.5"><title>2024-04-12 3.1 km</title></rect><rect fill="#ffb500" height="2.6" width="2.6" x="59.0" y="63.0"><title>2024-04-13 12.9 km</title></rect><rect fill="red" height="2.6" width="2.6" x="59.0" y="66.5"><title>2024-04-14 22.6 km</title></rect><rect fill="#4dd2ff" height="2.6" width="2.6" x="62.5" y="45.5"><title>2024-04-15 3.2 km</title></rect><rect fill="#ffbf00" height="2.6" width="2.6" x="62.5" y="49.0"><title>2024-04-16 11.3 km</title></rect><rect fill="#ff9700" height="2.6" width="2.6" x="62.5" y="52.5"><title>2024-04-17 17.7 km</title></rect><rect fill="#4dd2ff" height="2.6" width="2.6" x="62.5" y="56.0"><title>2024-04-18 3.2 km</title></rect><rect fill="#ff8d00" height="2.6" width="2.6" x="62.5" y="59.5"><title>2024-04-19 19.3 km</title></rect><rect fill="#4dd2ff" height="2.6" width="2.6" x="62.5" y="63.0"><title>2024-04-20 8.5 km</title></rect><rect fill="red" height="2.6" width="2.6" x="62.5" y="66.5"><title>2024-04-21 32.2 km</title></rect><rect fill="#4dd2ff" height="2.6" width="2.6" x="66.0" y="45.5"><title>2024-04-22 1.8 km</title></rect><rect fill="#ffb500" height="2.6" width="2.6" x="66.0" y="49.0"><title>2024-04-23 12.9 km</title></rect><rect fill="#ff8d00" height="2.6" width="2.6" x="66.0" y="52.5"><title>2024-04-24 19.3 km</title></rect><rect fill="#4dd2ff" height="2.6" width="2.6" x="66.0" y="56.0"><title>2024-04-25 2.7 km</title></rect><rect fill="#4dd2ff" height="2.6" width="2.6" x="66.0" y="59.5"><title>2024-04-26 8.1 km</title></rect><rect fill="red" height="2.6" width="2.6" x="66.0" y="63.0"><title>2024-04-27 21.2 km</title></rect><rect fill="red" height="2.6" width="2.6" x="66.0" y="66.5"><title>2024-04-28 27.4 km</title></rect><rect fill="#4dd2ff" height="2.6" width="2.6" x="69.5" y="45.5"><title>2024-04-29 3.2 km</title></rect><rect fill="#ffb500" height="2.6" width="2.6" x="69.5" y="49.0"><title>2024-04-30 12.9 km</title></rect><rect fill="#ffab00" height="2.6" width="2.6" x="69.5" y="52.5"><title>2024-05-01 14.5 km</title></rect><rect fill="#4dd2ff" height="2.6" width="2.6" x="69.5" y="56.0"><title>2024-05-02 7.9 km</title></rect><rect fill="#ff8d00" height="2.6" width="2.6" x="69.5" y="59.5"><title>2024-05-03 19.3 km</title></rect><rect fill="#4dd2ff" height="2.6" width="2.6" x="69.5" y="63.0"><title>2024-05-04 3.2 km</title></rect><rect fill="#4dd2ff" height="2.6" width="2.6" x="69.5" y="66.5"><title>2024-05-05 3.2 km</title></rect><rect fill="#4dd2ff" height="2.6" width="2.6" x="73.0" y="45.5"><title>2024-05-06 5.7 km</title></rect><rect fill="#ffc500" height="2.6" width="2.6" x="73.0" y="49.0"><title>2024-05-07 10.2 km</title></rect><rect fill="#ff9700" height="2.6" width="2.6" x="73.0" y="52.5"><title>2024-05-08 17.7 km</title></rect><rect fill="#4dd2ff" height="2.6" width="2.6" x="73.0" y="56.0"><title>2024-05-09 3.2 km</title></rect><rect fill="#4dd2ff" height="2.6" width="2.6" x="73.0" y="59.5"><title>2024-05-10 6.5 km</title></rect><rect fill="red" height="2.6" width="2.6" x="73.0" y="63.0"><title>2024-05-11 21.1 km</title></rect><rect fill="red" height="2.6" width="2.6" x="73.0" y="66.5"><title>2024-05-12 27.4 km</title></rect><rect fill="#4dd2ff" height="2.6" width="2.6" x="76.5" y="45.5"><title>2024-05-13 3.2 km</title></rect><rect fill="#ffbe00" height="2.6" width="2.6" x="76.5" y="49.0"><title>2024-05-14 11.3 km</title></rect><rect fill="#ff9e00" height="2.6" width="2.6" x="76.5" y="52.5"><title>2024-05-15 16.6 km</title></rect><rect fill="#4dd2ff" height="2.6" width="2.6" x="76.5" y="56.0"><title>2024-05-16 2.8 km</title></rect><rect fill="#ff9700" height="2.6" width="2.6" x="76.5" y="59.5"><title>2024-05-17 17.7 km</title></rect><rect fill="#4dd2ff" height="2.6" width="2.6" x="76.5" y="63.0"><title>2024-05-18 6.5 km</title></rect><rect fill="red" height="2.6" width="2.6" x="76.5" y="66.5"><title>2024-05-19 32.2 km</title></rect><rect fill="#4dd2ff" height="2.6" width="2.6" x="80.0" y="45.5"><title>2024-05-20 3.3 km</title></rect><rect fill="#ffb500" height="2.6" width="2.6" x="80.0" y="49.0"><title>2024-05-21 12.9 km</title></rect><rect fill="#4dd2ff" height="2.6" width="2.6" x="80.0" y="52.5"><title>2024-05-22 9.7 km</title></rect><rect fill="#4dd2ff" height="2.6" width="2.6" x="80.0" y="56.0"><title>2024-05-23 2.6 km</title></rect><rect fill="#4dd2ff" height="2.6" width="2.6" x="80.0" y="59.5"><title>2024-05-24 5.7 km</title></rect><rect fill="red" height="2.6" width="2.6" x="80.0" y="63.0"><title>2024-05-25 22.0 km</title></rect><rect fill="red" height="2.6" width="2.6" x="80.0" y="66.5"><title>2024-05-26 25.8 km</title></rect><rect fill="#4dd2ff" height="2.6" width="2.6" x="83.5" y="45.5"><title>2024-05-27 3.3 km</title></rect><rect fill="#ffbe00" height="2.6" width="2.6" x="83.5" y="49.0"><title>2024-05-28 11.4 km</title></rect><rect fill="#ffb500" height="2.6" width="2.6" x="83.5" y="52.5"><title>2024-05-29 12.9 km</title></rect><rect fill="#4dd2ff" height="2.6" width="2.6" x="83.5" y="56.0"><title>2024-05-30 2.9 km</title></rect><rect fill="#4dd2ff" height="2.6" width="2.6" x="83.5" y="59.5"><title>2024-05-31 8.1 km</title></rect><rect fill="#4dd2ff" height="2.6" width="2.6" x="83.5" y="63.0"><title>2024-06-01 3.2 km</title></rect><rect fill="#ff8d00" height="2.6" width="2.6" x="83.5" y="66.5"><title>2024-06-02 19.3 km</title></rect><rect fill="#4dd2ff" height="2.6" width="2.6" x="87.0" y="45.5"><title>2024-06-03 2.5 km</title></rect><rect fill="#4dd2ff" height="2.6" width="2.6" x="87.0" y="49.0"><title>2024-06-04 9.7 km</title></rect><rect fill="#ffbf00" height="2.6" width="2.6" x="87.0" y="52.5"><title>2024-06-05 11.3 km</title></rect><rect fill="#4dd2ff" height="2.6" width="2.6" x="87.0" y="56.0"><title>2024-06-06 3.2 km</title></rect><rect fill="#4dd2ff" height="2.6" width="2.6" x="87.0" y="59.5"><title>2024-06-07 6.5 km</title></rect><rect fill="#4dd2ff" height="2.6" width="2.6" x="87.0" y="63.0"><title>2024-06-08 6.4 km</title></rect><rect fill="red" height="2.6" width="2.6" x="87.0" y="66.5"><title>2024-06-09 42.2 km</title></rect><rect fill="#4dd2ff" height="2.6" width="2.6" x="90.5" y="45.5"><title>2024-06-10 1.8 km</title></rect><rect fill="#4dd2ff" height="2.6" width="2.6" x="90.5" y="49.0"><title>2024-06-11 2.2 km</title></rect><rect fill="#4dd2ff" height="2.6" width="2.6" x="90.5" y="52.5"><title>2024-06-12 6.4 km</title></rect><rect fill="#4dd2ff" height="2.6" width="2.6" x="90.5" y="56.0"><title>2024-06-13 2.5 km</title></rect><rect fill="#4dd2ff" height="2.6" width="2.6" x="90.5" y="59.5"><title>2024-06-14 2.4 km</title></rect><rect fill="#4dd2ff" height="2.6" width="2.6" x="90.5" y="63.0"><title>2024-06-15 9.7 km</title></rect><rect fill="#4dd2ff" height="2.6" width="2.6" x="90.5" y="66.5"><title>2024-06-16 3.2 km</title></rect><rect fill="#4dd2ff" height="2.6" width="2.6" x="94.0" y="45.5"><title>2024-06-17 3.2 km</title></rect><rect fill="#4dd2ff" height="2.6" width="2.6" x="94.0" y="49.0"><title>2024-06-18 8.1 km</title></rect><rect fill="#4dd2ff" height="2.6" width="2.6" x="94.0" y="52.5"><title>2024-06-19 6.4 km</title></rect><rect fill="#4dd2ff" height="2.6" width="2.6" x="94.0" y="56.0"><title>2024-06-20 3.2 km</title></rect><rect fill="#4dd2ff" height="2.6" width="2.6" x="94.0" y="59.5"><title>2024-06-21 9.9 km</title></rect><rect fill="#4dd2ff" height="2.6" width="2.6" x="94.0" y="63.0"><title>2024-06-22 3.2 km</title></rect><rect fill="#ffbe00" height="2.6" width="2.6" x="94.0" y="66.5"><title>2024-06-23 11.4 km</title></rect><rect fill="#4dd2ff" height="2.6" width="2.6" x="97.5" y="45.5"><title>2024-06-24 3.4 km</title></rect><rect fill="#4dd2ff" height="2.6" width="2.6" x="97.5" y="49.0"><title>2024-06-25 8.1 km</title></rect><rect fill="#4dd2ff" height="2.6" width="2.6" x="97.5" y="52.5"><title>2024-06-26 8.1 km</title></rect><rect fill="#4dd2ff" height="2.6" width="2.6" x="97.5" y="56.0"><title>2024-06-27 3.3 km</title></rect><rect fill="#ffbf00" height="2.6" width="2.6" x="97.5" y="59.5"><title>2024-06-28 11.3 km</title></rect><rect fill="#4dd2ff" height="2.6" width="2.6" x="97.5" y="63.0"><title>2024-06-29 5.2 km</title></rect><rect fill="#ffaa00" height="2.6" width="2.6" x="97.5" y="66.5"><title>2024-06-30 14.6 km</title></rect><rect fill="#4dd2ff" height="2.6" width="2.6" x="101.0" y="45.5"><title>2024-07-01 4.0 km</title></rect><rect fill="#ffbf00" height="2.6" width="2.6" x="101.0" y="49.0"><title>2024-07-02 11.2 km</title></rect><rect fill="#4dd2ff" height="2.6" width="2.6" x="101.0" y="52.5"><title>2024-07-03 8.1 km</title></rect><rect fill="#ffb800" height="2.6" width="2.6" x="101.0" y="56.0"><title>2024-07-04 12.4 km</title></rect><rect fill="#4dd2ff" height="2.6" width="2.6" x="101.0" y="59.5"><title>2024-07-05 5.3 km</title></rect><rect fill="#4dd2ff" height="2.6" width="2.6" x="101.0" y="63.0"><title>2024-07-06 5.2 km</title></rect><rect fill="#ff9e00" height="2.6" width="2.6" x="101.0" y="66.5"><title>2024-07-07 16.6 km</title></rect><rect fill="#4dd2ff" height="2.6" width="2.6" x="104.5" y="45.5"><title>2024-07-08 5.1 km</title></rect><rect fill="#ffbf00" height="2.6" width="2.6" x="104.5" y="49.0"><title>2024-07-09 11.3 km</title></rect><rect fill="#4dd2ff" height="2.6" width="2.6" x="104.5" y="52.5"><title>2024-07-10 9.4 km</title></rect><rect fill="#4dd2ff" height="2.6" width="2.6" x="104.5" y="56.0"><title>2024-07-11 3.9 km</title></rect><rect fill="#ffb500" height="2.6" width="2.6" x="104.5" y="59.5"><title>2024-07-12 12.9 km</title></rect><rect fill="red" height="2.6" width="2.6" x="104.5" y="63.0"><title>2024-07-13 26.5 km</title></rect><rect fill="#4dd2ff" height="2.6" width="2.6" x="104.5" y="66.5"><title>2024-07-14 5.1 km</title></rect><rect fill="#4dd2ff" height="2.6" width="2.6" x="108.0" y="45.5"><title>2024-07-15 2.5 km</title></rect><rect fill="#4dd2ff" height="2.6" width="2.6" x="108.0" y="49.0"><title>2024-07-16 4.1 km</title></rect><rect fill="#4dd2ff" height="2.6" width="2.6" x="108.0" y="52.5"><title>2024-07-17 6.1 km</title></rect><rect fill="#4dd2ff" height="2.6" width="2.6" x="108.0" y="56.0"><title>2024-07-18 8.4 km</title></rect><rect fill="#4dd2ff" height="2.6" width="2.6" x="108.0" y="59.5"><title>2024-07-19 3.4 km</title></rect><rect fill="red" height="2.6" width="2.6" x="108.0" y="63.0"><title>2024-07-20 23.1 km</title></rect><rect fill="#4dd2ff" height="2.6" width="2.6" x="108.0" y="66.5"><title>2024-07-21 3.4 km</title></rect><rect fill="#4dd2ff" height="2.6" width="2.6" x="111.5" y="45.5"><title>2024-07-22 5.1 km</title></rect><rect fill="#4dd2ff" height="2.6" width="2.6" x="111.5" y="49.0"><title>2024-07-23 4.8 km</title></rect><rect fill="#4dd2ff" height="2.6" width="2.6" x="111.5" y="52.5"><title>2024-07-24 6.7 km</title></rect><rect fill="#4dd2ff" height="2.6" width="2.6" x="111.5" y="56.0"><title>2024-07-25 5.1 km</title></rect><rect fill="#4dd2ff" height="2.6" width="2.6" x="111.5" y="59.5"><title>2024-07-26 3.3 km</title></rect><rect fill="#4dd2ff" height="2.6" width="2.6" x="111.5" y="63.0"><title>2024-07-27 0.8 km</title></rect><rect fill="#4dd2ff" height="2.6" width="2.6" x="111.5" y="66.5"><title>2024-07-28 3.2 km</title></rect><rect fill="#4dd2ff" height="2.6" width="2.6" x="115.0" y="45.5"><title>2024-07-29 5.2 km</title></rect><rect fill="#4dd2ff" height="2.6" width="2.6" x="115.0" y="49.0"><title>2024-07-30 5.1 km</title></rect><rect fill="#4dd2ff" height="2.6" width="2.6" x="115.0" y="52.5"><title>2024-07-31 8.5 km</title></rect><rect fill="#4dd2ff" height="2.6" width="2.6" x="115.0" y="56.0"><title>2024-08-01 4.0 km</title></rect><rect fill="#4dd2ff" height="2.6" width="2.6" x="115.0" y="59.5"><title>2024-08-02 8.8 km</title></rect><rect fill="#4dd2ff" height="2.6" width="2.6" x="115.0" y="63.0"><title>2024-08-03 3.3 km</title></rect><rect fill="#4dd2ff" height="2.6" width="2.6" x="115.0" y="66.5"><title>2024-08-04 6.6 km</title></rect><rect fill="#4dd2ff" height="2.6" width="2.6" x="118.5" y="45.5"><title>2024-08-05 2.2 km</title></rect><rect fill="#ffb500" height="2.6" width="2.6" x="118.5" y="49.0"><title>2024-08-06 12.9 km</title></rect><rect fill="#ffaf00" height="2.6" width="2.6" x="118.5" y="52.5"><title>2024-08-07 13.9 km</title></rect><rect fill="#ffac00" height="2.6" width="2.6" x="118.5" y="56.0"><title>2024-08-08 14.3 km</title></rect><rect fill="#4dd2ff" height="2.6" width="2.6" x="118.5" y="59.5"><title>2024-08-09 2.3 km</title></rect><rect fill="#4dd2ff" height="2.6" width="2.6" x="118.5" y="63.0"><title>2024-08-10 5.2 km</title></rect><rect fill="#4dd2ff" height="2.6" width="2.6" x="118.5" y="66.5"><title>2024-08-11 5.6 km</title></rect><rect fill="#4dd2ff" height="2.6" width="2.6" x="122.0" y="45.5"><title>2024-08-12 7.9 km</title></rect><rect fill="#ffbb00" height="2.6" width="2.6" x="122.0" y="49.0"><title>2024-08-13 11.9 km</title></rect><rect fill="#ffbd00" height="2.6" width="2.6" x="122.0" y="52.5"><title>2024-08-14 11.5 km</title></rect><rect fill="#4dd2ff" height="2.6" width="2.6" x="122.0" y="56.0"><title>2024-08-15 3.2 km</title></rect><rect fill="#4dd2ff" height="2.6" width="2.6" x="122.0" y="59.5"><title>2024-08-16 6.5 km</title></rect><rect fill="red" height="2.6" width="2.6" x="122.0" y="63.0"><title>2024-08-17 27.8 km</title></rect><rect fill="#4dd2ff" height="2.6" width="2.6" x="122.0" y="66.5"><title>2024-08-18 9.7 km</title></rect><rect fill="#4dd2ff" height="2.6" width="2.6" x="125.5" y="45.5"><title>2024-08-19 6.0 km</title></rect><rect fill="#4dd2ff" height="2.6" width="2.6" x="125.5" y="49.0"><title>2024-08-20 6.6 km</title></rect><rect fill="#ff8f00" height="2.6" width="2.6" x="125.5" y="52.5"><title>2024-08-21 19.0 km</title></rect><rect fill="#ffad00" height="2.6" width="2.6" x="125.5" y="56.0"><title>2024-08-22 14.2 km</title></rect><rect fill="#ffac00" height="2.6" width="2.6" x="125.5" y="59.5"><title>2024-08-23 14.3 km</title></rect><rect fill="red" height="2.6" width="2.6" x="125.5" y="63.0"><title>2024-08-24 21.2 km</title></rect><rect fill="#4dd2ff" height="2.6" width="2.6" x="125.5" y="66.5"><title>2024-08-25 8.6 km</title></rect><rect fill="#4dd2ff" height="2.6" width="2.6" x="129.0" y="45.5"><title>2024-08-26 5.9 km</title></rect><rect fill="#4dd2ff" height="2.6" width="2.6" x="129.0" y="49.0"><title>2024-08-27 3.5 km</title></rect><rect fill="#4dd2ff" height="2.6" width="2.6" x="129.0" y="52.5"><title>2024-08-28 3.6 km</title></rect><rect fill="#4dd2ff" height="2.6" width="2.6" x="129.0" y="56.0"><title>2024-08-29 3.9 km</title></rect><rect fill="#4dd2ff" height="2.6" width="2.6" x="129.0" y="59.5"><title>2024-08-30 5.3 km</title></rect><rect fill="#4dd2ff" height="2.6" width="2.6" x="129.0" y="63.0"><title>2024-08-31 7.6 km</title></rect><rect fill="#4dd2ff" height="2.6" width="2.6" x="129.0" y="66.5"><title>2024-09-01 5.2 km</title></rect><rect fill="#4dd2ff" height="2.6" width="2.6" x="132.5" y="45.5"><title>2024-09-02 3.2 km</title></rect><rect fill="#4dd2ff" height="2.6" width="2.6" x="132.5" y="49.0"><title>2024-09-03 2.1 km</title></rect><rect fill="#4dd2ff" height="2.6" width="2.6" x="132.5" y="52.5"><title>2024-09-04 7.9 km</title></rect><rect fill="#4dd2ff" height="2.6" width="2.6" x="132.5" y="56.0"><title>2024-09-05 3.0 km</title></rect><rect fill="#4dd2ff" height="2.6" width="2.6" x="132.5" y="59.5"><title>2024-09-06 5.2 km</title></rect><rect fill="#ffb700" height="2.6" width="2.6" x="132.5" y="63.0"><title>2024-09-07 12.6 km</title></rect><rect fill="#4dd2ff" height="2.6" width="2.6" x="132.5" y="66.5"><title>2024-09-08 5.7 km</title></rect><rect fill="#4dd2ff" height="2.6" width="2.6" x="136.0" y="45.5"><title>2024-09-09 5.1 km</title></rect><rect fill="#ffb400" height="2.6" width="2.6" x="136.0" y="49.0"><title>2024-09-10 13.0 km</title></rect><rect fill="#4dd2ff" height="2.6" width="2.6" x="136.0" y="52.5"><title>2024-09-11 3.2 km</title></rect><rect fill="#4dd2ff" height="2.6" width="2.6" x="136.0" y="56.0"><title>2024-09-12 5.6 km</title></rect><rect fill="#ffaa00" height="2.6" width="2.6" x="136.0" y="59.5"><title>2024-09-13 14.6 km</title></rect><rect fill="#4dd2ff" height="2.6" width="2.6" x="136.0" y="63.0"><title>2024-09-14 6.6 km</title></rect><rect fill="red" height="2.6" width="2.6" x="136.0" y="66.5"><title>2024-09-15 21.2 km</title></rect><rect fill="#4dd2ff" height="2.6" width="2.6" x="139.5" y="45.5"><title>2024-09-16 5.1 km</title></rect><rect fill="#4dd2ff" height="2.6" width="2.6" x="139.5" y="49.0"><title>2024-09-17 9.7 km</title></rect><rect fill="#4dd2ff" height="2.6" width="2.6" x="139.5" y="52.5"><title>2024-09-18 5.6 km</title></rect><rect fill="#ffa100" height="2.6" width="2.6" x="139.5" y="56.0"><title>2024-09-19 16.1 km</title></rect><rect fill="#4dd2ff" height="2.6" width="2.6" x="139.5" y="59.5"><title>2024-09-20 5.1 km</title></rect><rect fill="#4dd2ff" height="2.6" width="2.6" x="139.5" y="63.0"><title>2024-09-21 8.9 km</title></rect><rect fill="red" height="2.6" width="2.6" x="139.5" y="66.5"><title>2024-09-22 32.2 km</title></rect><rect fill="#4dd2ff" height="2.6" width="2.6" x="143.0" y="45.5"><title>2024-09-23 2.5 km</title></rect><rect fill="#ffa100" height="2.6" width="2.6" x="143.0" y="49.0"><title>2024-09-24 16.1 km</title></rect><rect fill="#4dd2ff" height="2.6" width="2.6" x="143.0" y="52.5"><title>2024-09-25 5.1 km</title></rect><rect fill="#4dd2ff" height="2.6" width="2.6" x="143.0" y="56.0"><title>2024-09-26 5.6 km</title></rect><rect fill="#ffb500" height="2.6" width="2.6" x="143.0" y="59.5"><title>2024-09-27 12.9 km</title></rect><rect fill="#4dd2ff" height="2.6" width="2.6" x="143.0" y="63.0"><title>2024-09-28 6.5 km</title></rect><rect fill="red" height="2.6" width="2.6" x="143.0" y="66.5"><title>2024-09-29 23.1 km</title></rect><rect fill="#4dd2ff" height="2.6" width="2.6" x="146.5" y="45.5"><title>2024-09-30 5.2 km</title></rect><rect fill="#ffb500" height="2.6" width="2.6" x="146.5" y="49.0"><title>2024-10-01 12.9 km</title></rect><rect fill="#4dd2ff" height="2.6" width="2.6" x="146.5" y="52.5"><title>2024-10-02 8.1 km</title></rect><rect fill="#ffa000" height="2.6" width="2.6" x="146.5" y="56.0"><title>2024-10-03 16.3 km</title></rect><rect fill="#4dd2ff" height="2.6" width="2.6" x="146.5" y="59.5"><title>2024-10-04 2.3 km</title></rect><rect fill="#ff9900" height="2.6" width="2.6" x="146.5" y="63.0"><title>2024-10-05 17.5 km</title></rect><rect fill="#4dd2ff" height="2.6" width="2.6" x="146.5" y="66.5"><title>2024-10-06 6.5 km</title></rect><rect fill="#4dd2ff" height="2.6" width="2.6" x="150.0" y="45.5"><title>2024-10-07 5.1 km</title></rect><rect fill="#ffbe00" height="2.6" width="2.6" x="150.0" y="49.0"><title>2024-10-08 11.4 km</title></rect><rect fill="#4dd2ff" height="2.6" width="2.6" x="150.0" y="52.5"><title>2024-10-09 8.2 km</title></rect><rect fill="#ffad00" height="2.6" width="2.6" x="150.0" y="56.0"><title>2024-10-10 14.1 km</title></rect><rect fill="#4dd2ff" height="2.6" width="2.6" x="150.0" y="59.5"><title>2024-10-11 5.1 km</title></rect><rect fill="#4dd2ff" height="2.6" width="2.6" x="150.0" y="63.0"><title>2024-10-12 8.7 km</title></rect><rect fill="red" height="2.6" width="2.6" x="150.0" y="66.5"><title>2024-10-13 25.8 km</title></rect><rect fill="#4dd2ff" height="2.6" width="2.6" x="153.5" y="45.5"><title>2024-10-14 2.7 km</title></rect><rect fill="#4dd2ff" height="2.6" width="2.6" x="153.5" y="49.0"><title>2024-10-15 9.9 km</title></rect><rect fill="#4dd2ff" height="2.6" width="2.6" x="153.5" y="52.5"><title>2024-10-16 7.6 km</title></rect><rect fill="#ffab00" height="2.6" width="2.6" x="153.5" y="56.0"><title>2024-10-17 14.5 km</title></rect><rect fill="#4dd2ff" height="2.6" width="2.6" x="153.5" y="59.5"><title>2024-10-18 8.1 km</title></rect><rect fill="#4dd2ff" height="2.6" width="2.6" x="153.5" y="63.0"><title>2024-10-19 9.0 km</title></rect><rect fill="red" height="2.6" width="2.6" x="153.5" y="66.5"><title>2024-10-20 22.5 km</title></rect><rect fill="#4dd2ff" height="2.6" width="2.6" x="157.0" y="45.5"><title>2024-10-21 3.1 km</title></rect><rect fill="#ffaa00" height="2.6" width="2.6" x="157.0" y="49.0"><title>2024-10-22 14.6 km</title></rect><rect fill="#4dd2ff" height="2.6" width="2.6" x="157.0" y="52.5"><title>2024-10-23 6.5 km</title></rect><rect fill="#ff9700" height="2.6" width="2.6" x="157.0" y="56.0"><title>2024-10-24 17.8 km</title></rect><rect fill="#4dd2ff" height="2.6" width="2.6" x="157.0" y="59.5"><title>2024-10-25 5.2 km</title></rect><rect fill="#ffae00" height="2.6" width="2.6" x="157.0" y="63.0"><title>2024-10-26 13.9 km</title></rect><rect fill="red" height="2.6" width="2.6" x="157.0" y="66.5"><title>2024-10-27 29.1 km</title></rect><rect fill="#4dd2ff" height="2.6" width="2.6" x="160.5" y="45.5"><title>2024-10-28 2.4 km</title></rect><rect fill="#4dd2ff" height="2.6" width="2.6" x="160.5" y="49.0"><title>2024-10-29 7.8 km</title></rect><rect fill="#ffbb00" height="2.6" width="2.6" x="160.5" y="52.5"><title>2024-10-30 11.9 km</title></rect><rect fill="#4dd2ff" height="2.6" width="2.6" x="160.5" y="56.0"><title>2024-10-31 8.2 km</title></rect><rect fill="#ffa000" height="2.6" width="2.6" x="160.5" y="59.5"><title>2024-11-01 16.2 km</title></rect><rect fill="#4dd2ff" height="2.6" width="2.6" x="160.5" y="63.0"><title>2024-11-02 8.7 km</title></rect><rect fill="red" height="2.6" width="2.6" x="160.5" y="66.5"><title>2024-11-03 33.9 km</title></rect><rect fill="#4dd2ff" height="2.6" width="2.6" x="164.0" y="45.5"><title>2024-11-04 2.6 km</title></rect><rect fill="#4dd2ff" height="2.6" width="2.6" x="164.0" y="49.0"><title>2024-11-05 7.6 km</title></rect><rect fill="#ffb100" height="2.6" width="2.6" x="164.0" y="52.5"><title>2024-11-06 13.5 km</title></rect><rect fill="#ffb200" height="2.6" width="2.6" x="164.0" y="56.0"><title>2024-11-07 13.4 km</title></rect><rect fill="#4dd2ff" height="2.6" width="2.6" x="164.0" y="59.5"><title>2024-11-08 7.8 km</title></rect><rect fill="#4dd2ff" height="2.6" width="2.6" x="164.0" y="63.0"><title>2024-11-09 7.3 km</title></rect><rect fill="red" height="2.6" width="2.6" x="164.0" y="66.5"><title>2024-11-10 20.4 km</title></rect><rect fill="#4dd2ff" height="2.6" width="2.6" x="167.5" y="45.5"><title>2024-11-11 8.1 km</title></rect><rect fill="#4dd2ff" height="2.6" width="2.6" x="167.5" y="49.0"><title>2024-11-12 7.5 km</title></rect><rect fill="#4dd2ff" height="2.6" width="2.6" x="167.5" y="52.5"><title>2024-11-13 7.4 km</title></rect><rect fill="#ffc300" height="2.6" width="2.6" x="167.5" y="56.0"><title>2024-11-14 10.6 km</title></rect><rect fill="#4dd2ff" height="2.6" width="2.6" x="167.5" y="59.5"><title>2024-11-15 6.5 km</title></rect><rect fill="#4dd2ff" height="2.6" width="2.6" x="167.5" y="63.0"><title>2024-11-16 6.4 km</title></rect><rect fill="#4dd2ff" height="2.6" width="2.6" x="167.5" y="66.5"><title>2024-11-17 1.6 km</title></rect><rect fill="#4dd2ff" height="2.6" width="2.6" x="171.0" y="45.5"><title>2024-11-18 4.0 km</title></rect><rect fill="#4dd2ff" height="2.6" width="2.6" x="171.0" y="49.0"><title>2024-11-19 8.1 km</title></rect><rect fill="#4dd2ff" height="2.6" width="2.6" x="171.0" y="52.5"><title>2024-11-20 3.2 km</title></rect><rect fill="#4dd2ff" height="2.6" width="2.6" x="171.0" y="56.0"><title>2024-11-21 5.4 km</title></rect><rect fill="#4dd2ff" height="2.6" width="2.6" x="171.0" y="59.5"><title>2024-11-22 6.6 km</title></rect><rect fill="#ffb900" height="2.6" width="2.6" x="171.0" y="63.0"><title>2024-11-23 12.2 km</title></rect><rect fill="#ffc200" height="2.6" width="2.6" x="171.0" y="66.5"><title>2024-11-24 10.8 km</title></rect><rect fill="#4dd2ff" height="2.6" width="2.6" x="174.5" y="45.5"><title>2024-11-25 5.8 km</title></rect><rect fill="#4dd2ff" height="2.6" width="2.6" x="174.5" y="49.0"><title>2024-11-26 6.0 km</title></rect><rect fill="#4dd2ff" height="2.6" width="2.6" x="174.5" y="52.5"><title>2024-11-27 5.8 km</title></rect><rect fill="#4dd2ff" height="2.6" width="2.6" x="174.5" y="56.0"><title>2024-11-28 3.8 km</title></rect><rect fill="#ffc200" height="2.6" width="2.6" x="174.5" y="59.5"><title>2024-11-29 10.8 km</title></rect><rect fill="#4dd2ff" height="2.6" width="2.6" x="174.5" y="63.0"><title>2024-11-30 3.3 km</title></rect><rect fill="#4dd2ff" height="2.6" width="2.6" x="174.5" y="66.5"><title>2024-12-01 6.8 km</title></rect><rect fill="#4dd2ff" height="2.6" width="2.6" x="178.0" y="45.5"><title>2024-12-02 7.4 km</title></rect><rect fill="#4dd2ff" height="2.6" width="2.6" x="178.0" y="49.0"><title>2024-12-03 5.7 km</title></rect><rect fill="#ffc500" height="2.6" width="2.6" x="178.0" y="52.5"><title>2024-12-04 10.2 km</title></rect><rect fill="#4dd2ff" height="2.6" width="2.6" x="178.0" y="56.0"><title>2024-12-05 5.1 km</title></rect><rect fill="#4dd2ff" height="2.6" width="2.6" x="178.0" y="59.5"><title>2024-12-06 5.5 km</title></rect><rect fill="#4dd2ff" height="2.6" width="2.6" x="178.0" y="63.0"><title>2024-12-07 5.8 km</title></rect><rect fill="#ffa300" height="2.6" width="2.6" x="178.0" y="66.5"><title>2024-12-08 15.8 km</title></rect><rect fill="#4dd2ff" height="2.6" width="2.6" x="181.5" y="45.5"><title>2024-12-09 3.3 km</title></rect><rect fill="#4dd2ff" height="2.6" width="2.6" x="181.5" y="49.0"><title>2024-12-10 8.1 km</title></rect><rect fill="#ffc600" height="2.6" width="2.6" x="181.5" y="52.5"><title>2024-12-11 10.1 km</title></rect><rect fill="#4dd2ff" height="2.6" width="2.6" x="181.5" y="56.0"><title>2024-12-12 3.3 km</title></rect><rect fill="#4dd2ff" height="2.6" width="2.6" x="181.5" y="59.5"><title>2024-12-13 6.0 km</title></rect><rect fill="#4dd2ff" height="2.6" width="2.6" x="181.5" y="63.0"><title>2024-12-14 7.0 km</title></rect><rect fill="#ffaf00" height="2.6" width="2.6" x="181.5" y="66.5"><title>2024-12-15 13.9 km</title></rect><rect fill="#4dd2ff" height="2.6" width="2.6" x="185.0" y="45.5"><title>2024-12-16 8.2 km</title></rect><rect fill="#4dd2ff" height="2.6" width="2.6" x="185.0" y="49.0"><title>2024-12-17 4.4 km</title></rect><rect fill="#4dd2ff" height="2.6" width="2.6" x="185.0" y="52.5"><title>2024-12-18 5.1 km</title></rect><rect fill="#4dd2ff" height="2.6" width="2.6" x="185.0" y="56.0"><title>2024-12-19 5.9 km</title></rect><rect fill="#4dd2ff" height="2.6" width="2.6" x="185.0" y="59.5"><title>2024-12-20 6.2 km</title></rect><rect fill="#ffbd00" height="2.6" width="2.6" x="185.0" y="63.0"><title>2024-12-21 11.6 km</title></rect><rect fill="#4dd2ff" height="2.6" width="2.6" x="185.0" y="66.5"><title>2024-12-22 5.7 km</title></rect><rect fill="#4dd2ff" height="2.6" width="2.6" x="188.5" y="45.5"><title>2024-12-23 8.2 km</title></rect><rect fill="#4dd2ff" height="2.6" width="2.6" x="188.5" y="49.0"><title>2024-12-24 5.1 km</title></rect><rect fill="#ffb000" height="2.6" width="2.6" x="188.5" y="52.5"><title>2024-12-25 13.6 km</title></rect><rect fill="#4dd2ff" height="2.6" width="2.6" x="188.5" y="56.0"><title>2024-12-26 8.1 km</title></rect><rect fill="#ffb500" height="2.6" width="2.6" x="188.5" y="59.5"><title>2024-12-27 12.9 km</title></rect><rect fill="#4dd2ff" height="2.6" width="2.6" x="188.5" y="63.0"><title>2024-12-28 9.8 km</title></rect><rect fill="#ffb500" height="2.6" width="2.6" x="188.5" y="66.5"><title>2024-12-29 12.9 km</title></rect><rect fill="#4dd2ff" height="2.6" width="2.6" x="192.0" y="45.5"><title>2024-12-30 7.4 km</title></rect><rect fill="#444444" height="2.6" width="2.6" x="192.0" y="49.0"><title>2024-12-31</title></rect></svg>