<?xml version="1.0" encoding="utf-8" ?>
<svg baseProfile="full" height="200mm" version="1.1" viewBox="0,0,200,200" width="200mm" xmlns="http://www.w3.org/2000/svg" xmlns:ev="http://www.w3.org/2001/xml-events" xmlns:xlink="http://www.w3.org/1999/xlink"><defs /><rect fill="#1a1a1a" height="200" width="200" x="0" y="0" /><text alignment-baseline="middle" fill="#e1ed5e" style="dominant-baseline: central; font-size:9.0px; font-family:Arial;" text-anchor="middle" x="100.0" y="100.0">2024</text><line stroke="#e1ed5e" stroke-width="0.3" x1="100.0" x2="100.0" y1="15.0" y2="10.0" /><path d="M 100.0 14.0 a86.0,86.0 0 0,1 42.35913384403234,11.155469271406648" fill="none" id="id85" stroke="none" /><text fill="#e1ed5e" style="font-size:6.75px; font-family:Arial;" text-anchor="middle"><textPath startOffset="22.145653131862478" xlink:href="#id85">January</textPath></text><path d="M 100.0 79.0 l 0.0 -11.921671555153239 a32.92167155515324,32.92167155515324 0 0,0 0.5651442699919303,0.004851083858002159 l -0.20465134514307554 11.919914869489672" fill="#ff880c" stroke="none" /><path d="M 100.36049292484886 79.00309439819443 l 0.08374180190566961 -4.877540135567607 a25.878258958220574,25.878258958220574 0 0,0 0.44410380874153627,0.011438538768520513 l -0.16745892471794724 4.875383879449041" fill="#ff2403" stroke="none" /><path d="M 100.72087961077811 79.0123766808444 l 0.29176249562985024 -8.49434671945641 a29.499355948787887,29.499355948787887 0 0,0 0.5059480043628511,0.021727584267615913 l -0.4375362605935376 8.488086566762963" fill="#ff5908" stroke="none" /><path d="M 101.08105385017728 79.02784411241856 l 0.24716379746042663 -4.794911640392979 a25.80127770306521,25.80127770306521 0 0,0 0.4421302620784183,0.026597458660344863 l -0.32943841167130733 4.789962203907942" fill="#ff2303" stroke="none" /><path d="M 101.44090949804482 79.04949213459386 l 0.606158504092376 -8.813411615998083 a29.83423185370938,29.83423185370938 0 0,0 0.5106356164422624,0.039526426197975945 l -0.7573631153098719 8.801707422805054" fill="#ff5d08" stroke="none" /><path d="M 101.80034050326958 79.07731436759882 l 0.9804616348829482 -11.394450396483863 a32.436555637752505,32.436555637752505 0 0,0 0.5543568562226521,0.05249817064693544 l -1.1759180544906134 11.375940470331745" fill="#ff810b" stroke="none" /><path d="M 102.15924093988457 79.11130261209362 l 0.9510136028069504 -9.200193917163762 a30.249215911964697,30.249215911964697 0 0,0 0.5160575269515651,0.057825322287917084 l -1.1088070313593121 9.182512834368874" fill="#ff6309" stroke="none" /><path d="M 102.51750503828377 79.15144685158666 l 1.4395373737297636 -11.921434511127032 a33.00803350484397,33.00803350484397 0 0,0 0.5619573349406448,0.07275662778585915 l -1.6439725305612003 11.894966287140777" fill="#ff890c" stroke="none" /><path d="M 102.87502721639298 79.19773525538626 l 1.0889419633891526 -7.87904159125161 a28.9539355665169,28.9539355665169 0 0,0 0.49176866240139977,0.07227305838905385 l -1.2240357313982344 7.859187459563675" fill="#ff5107" stroke="none" /><path d="M 103.23170211078529 79.25015418208739 l 1.2284811043416477 -7.88772994275577 a28.98282214968932,28.98282214968932 0 0,0 0.490944850650298,0.08078478834808052 l -1.3637034580450162 7.865479155912021" fill="#ff5107" stroke="none" /><path d="M 103.58742460773223 79.30868818359171 l 1.399874209319731 -8.074102437261471 a29.194557826344884,29.194557826344884 0 0,0 0.49306169668284666,0.08985226588490483 l -1.5382706395536312 8.048881997445202" fill="#ff5407" stroke="none" /><path d="M 103.94208987418118 79.37332000966035 l 1.5097323846024333 -7.899557788421845 a29.042531014906537,29.042531014906537 0 0,0 0.48888746584979265,0.09779118526198413 l -1.6451163359831829 7.872477206497002" fill="#ff5207" stroke="none" /><path d="M 104.29559338865022 79.4440306129975 l 2.381524659375725 -11.396457616744247 a32.6426331177042,32.6426331177042 0 0,0 0.5475220097413499,0.11932987367248254 l -2.576809085736209 11.353896284938045" fill="#ff840c" stroke="none" /><path d="M 104.64783097203109 79.52079915486377 l 1.920075555527474 -8.460207175369867 a29.675355646261075,29.675355646261075 0 0,0 0.495815624886027,0.1170111374371483 l -2.065023334153386 8.425999894286491" fill="#ff5b08" stroke="none" /><path d="M 104.9986988182912 79.60360301121754 l 1.4203836073699765 -5.795649825164016 a26.967164023890163,26.967164023890163 0 0,0 0.4486754460318951,0.11405154384962453 l -1.519664346627266 5.770413049479124" fill="#ff3405" stroke="none" /><path d="M 105.3480935250658 79.69241777938227 l 1.1719712114001812 -4.450165582213394 a25.601900719210214,25.601900719210214 0 0,0 0.4240389162649894,0.11557369224532678 l -1.2481915285998635 4.429391395823925" fill="#ff2003" stroke="none" /><path d="M 105.69591212413111 79.78721728523813 l 2.325829998723146 -8.253550155118878 a29.574997104723906,29.574997104723906 0 0,0 0.4874804348401532,0.14189844996598894 l -2.4671704459449035 8.212408010850373" fill="#ff5a08" stroke="none" /><path d="M 106.04205211174951 79.88797359093562 l 1.8665396023437377 -6.213103277097014 a27.487420320820224,27.487420320820224 0 0,0 0.4507405078890069,0.1396405615341914 l -1.9729207431043747 6.180146127756176" fill="#ff3c05" stroke="none" /><path d="M 106.38641147887787 79.99465700312896 l 2.640976005401395 -8.27281972188932 a29.68414074114341,29.68414074114341 0 0,0 0.48410205982409094,0.15913396255288753 l -2.7826008028732283 8.22626483793441" fill="#ff5b08" stroke="none" /><path d="M 106.72888874123014 80.10723608172694 l 6.178001659107173 -18.264164146196133 a40.28075196819687,40.28075196819687 0 0,0 0.6531125496598715,0.22718644763947962 l -6.490619980812063 18.155419265988062" fill="#ffe915" stroke="none" /><path d="M 107.06938296918511 80.22567764915836 l 2.6916263416659936 -7.5289579246341525 a28.99562754222967,28.99562754222967 0 0,0 0.4672588054708081,0.17158390557772385 l -2.8204742987909266 7.481643170047707" fill="#ff5107" stroke="none" /><path d="M 107.40779381753099 80.34994680014964 l 5.379637941012057 -14.27012877797043 a36.250478015991376,36.250478015991376 0 0,0 0.5804007717545219,0.22451148694330592 l -5.623810975260105 14.175677402889086" fill="#ffb510" stroke="none" /><path d="M 107.74402155503746 80.48000691201159 l 4.94942148093624 -12.475775333369322 a34.421689281333386,34.421689281333386 0 0,0 0.5473795035138164,0.22261447878442903 l -5.162855445640496 12.388973598005599" fill="#ff9c0e" stroke="none" /><path d="M 108.07796709384702 80.6158196554323 l 8.339931169957744 -20.01279876256003 a42.68101856994632,42.68101856994632 0 0,0 0.6738823197044634,0.2876402907621543 l -8.682248564832639 19.866683822138477" fill="#f7ff18" stroke="none" /><path d="M 108.4095320186766 80.7573450057729 l 3.500733567120792 -8.010363491001526 a29.741913907488247,29.741913907488247 0 0,0 0.46607929716076535,0.20847134133068376 l -3.637726267137189 7.94908839876099" fill="#ff5c08" stroke="none" /><path d="M 108.73861861582097 80.90454125486305 l 5.015923258449273 -10.960697549734258 a33.05389467812802,33.05389467812802 0 0,0 0.5139271268053045,0.24054384504677187 l -5.203339099126082 10.872977473116952" fill="#ff8a0c" stroke="none" /><path d="M 109.06512990194946 81.05736502329252 l 8.39779452248862 -17.548160695930687 a40.45407146723139,40.45407146723139 0 0,0 0.6238398295372731,0.30515132163919667 l -8.69779460128796 17.401415624194268" fill="#ffeb16" stroke="none" /><path d="M 109.3889696526874 81.21577127319529 l 9.649178297266634 -19.3048203228239 a42.58200012762849,42.58200012762849 0 0,0 0.6510438612366867,0.332427634418622 l -9.9791493802169 19.136334736732447" fill="#f8ff18" stroke="none" /><path d="M 109.71004243097381 81.37971332152246 l 3.6792790467893672 -7.055502703345331 a28.957211364608618,28.957211364608618 0 0,0 0.438786119992905,0.23362889416972513 l -3.799853982568832 6.991303341453032" fill="#ff5107" stroke="none" /><path d="M 110.02825361518725 81.54914285379988 l 1.5539298079165287 -2.8590558238045407 a24.254058704381677,24.254058704381677 0 0,0 0.36410633177902135,0.20196364450231197 l -1.6027803278516504 2.8319592638690825" fill="#ff0d01" stroke="none" /><path d="M 110.34350942703115 81.72400993836675 l 3.8754515459109022 -6.847551543029651 a28.868169216479203,28.868169216479203 0 0,0 0.42918380326025796,0.24778938434413736 l -3.9924278170315577 6.780015261409342" fill="#ff5007" stroke="none" /><line stroke="#e1ed5e" stroke-width="0.3" x1="143.13028292997686" x2="145.6673583964461" y1="26.7553504044142" y2="22.446841604673864" /><path d="M 143.63769802327073 25.89364864446614 a86.0,86.0 0 0,1 29.32050498858742,28.57503671076993" fill="none" id="id86" stroke="none" /><text fill="#e1ed5e" style="font-size:6.75px; font-family:Arial;" text-anchor="middle"><textPath startOffset="20.669276256404974" xlink:href="#id86">February</textPath></text><path d="M 110.65571695917076 81.90426304109057 l 6.235703512794093 -10.589587819724784 a33.28915654107865,33.28915654107865 0 0,0 0.48993275469901115,0.2941905422853458 l -6.416569024050538 10.480983276903517" fill="#ff8d0d" stroke="none" /><path d="M 110.96478420261332 82.08984904055464 l 3.276583930289824 -5.352053605286357 a27.27538684433814,27.27538684433814 0 0,0 0.39722817610170325,0.24789976075634265 l -3.3679762351812395 5.295018047688468" fill="#ff3905" stroke="none" /><path d="M 111.27062007382361 82.28071324371311 l 10.430377463895013 -16.39828581289118 a40.434416678681075,40.434416678681075 0 0,0 0.582475809362282,0.3775537823555494 l -10.710338905514302 16.216818188831734" fill="#ffeb16" stroke="none" /><path d="M 111.5731344415666 82.4767994020092 l 17.355721801509283 -26.27877488042046 a52.49277835420689,52.49277835420689 0 0,0 0.7476564216116515,0.5030566073062644 l -17.804274511217933 25.976968599057077" fill="#85ff25" stroke="none" /><path d="M 111.8722381534696 82.67804972795209 l 3.0487388357270584 -4.448201073989733 a26.3927081585335,26.3927081585335 0 0,0 0.37151495661337314,0.25934629302170076 l -3.1246488835141926 4.3952099651629055" fill="#ff2c04" stroke="none" /><path d="M 112.16784306229584 82.88440491214696 l 11.167878346566834 -15.709019486168014 a40.27420037201343,40.27420037201343 0 0,0 0.5600395857443681,0.40542547105761273 l -11.43589894268517 15.514993243737328" fill="#ffe915" stroke="none" /><path d="M 112.45986205192187 83.09580414077388 l 3.0164961952585094 -4.092456423736653 a26.084038638345746,26.084038638345746 0 0,0 0.3581549799287181,0.26876617397372726 l -3.086304164097994 4.040071222498911" fill="#ff2703" stroke="none" /><path d="M 112.7482090630111 83.31218511350987 l 13.11715426069718 -17.170775993561154 a42.60775981262246,42.60775981262246 0 0,0 0.5774164154306295,0.4490024971108229 l -13.409980620763037 16.943072444829543" fill="#f8ff18" stroke="none" /><path d="M 113.03279911837588 83.53348406188908 l 3.2534330309214967 -4.110606353297454 a26.242319246141008,26.242319246141008 0 0,0 0.3508338529735921,0.28260691773013663 l -3.3235176542503484 4.054151141773909" fill="#ff2a04" stroke="none" /><path d="M 113.31354834802062 83.75963576809568 l 6.84027076276407 -8.344018118103767 a31.78943661472502,31.78943661472502 0 0,0 0.4190539027375982,0.3495896698322203 l -6.9824989996635605 8.225366264359677" fill="#ff790b" stroke="none" /><path d="M 113.59037401385872 83.9905735841838 l 18.650512018725706 -21.970256262013468 a49.818982611799015,49.818982611799015 0 0,0 0.6472209882779061,0.5590540746242155 l -19.02491248676647 21.646858054924532" fill="#a2ff22" stroke="none" /><path d="M 113.86319453409587 84.22622945171908 l 3.576226664945479 -4.069089465833777 a26.41727664422138,26.41727664422138 0 0,0 0.33805933954210954,0.30229474599588557 l -3.645551031310964 4.007099189954504" fill="#ff2c04" stroke="none" /><path d="M 114.13192950727249 84.46653392183569 l 12.908529261960174 -14.188734900387255 a40.18203132570556,40.18203132570556 0 0,0 0.5062366293767308,0.46856506647706153 l -13.15019566265087 13.965052087777819" fill="#ffe815" stroke="none" /><path d="M 114.39649973595853 84.71141617570332 l 5.122579227159393 -5.44000162174232 a28.47224434712115,28.47224434712115 0 0,0 0.3529575520343557,0.3381253506260729 l -5.215209265059061 5.351264140810668" fill="#ff4a06" stroke="none" /><path d="M 114.65682725009322 84.96080404539774 l 16.7321513761945 -17.168661334058953 a44.97348163449561,44.97348163449561 0 0,0 0.5482654608722675,0.5435794594499642 l -17.02440875719673 16.878901864380328" fill="#dbff1b" stroke="none" /><path d="M 114.91283532996326 85.21462403516908 l 4.493909295302359 -4.455500044944001 a27.3282463135454,27.3282463135454 0 0,0 0.3274355939947473,0.33597776494003834 l -4.569731690447918 4.37769958793622" fill="#ff3a05" stroke="none" /><path d="M 115.16444852881244 85.47280134310134 l 15.908795099378887 -15.240265833700693 a43.03078446619381,43.03078446619381 0 0,0 0.5064193976462935,0.5377998508781113 l -16.16807033076144 14.964924522878087" fill="#f3ff19" stroke="none" /><path d="M 115.41159269507618 85.73525988315684 l 46.23477808522854 -42.794220350529464 a84.0,84.0 0 0,0 0.9704091966324899,1.066649697769313 l -46.96258498270291 41.99423307720248" fill="#4dd2ff" stroke="none" /><path d="M 115.6541949942343 86.00192230759917 l 3.890285913970721 -3.4787176529659907 a26.218793059845947,26.218793059845947 0 0,0 0.29713250783822076,0.3380822500577446 l -3.949429485767532 3.411423125096948" fill="#ff2904" stroke="none" /><path d="M 115.8921839302757 86.27271002978787 l 18.153808590960608 -15.68082748634038 a44.98852052573487,44.98852052573487 0 0,0 0.4998126865917056,0.5887780880439089 l -18.420315841059427 15.366882615846919" fill="#dbff1b" stroke="none" /><path d="M 116.1254893667686 86.54754324733833 l 7.395224284062459 -6.169359118030866 a30.63069748973654,30.63069748973654 0 0,0 0.3333687304866034,0.4066556461962942 l -7.50003983378769 6.041501190136077" fill="#ff6809" stroke="none" /><path d="M 116.35404254752997 86.82634096563983 l 14.93120068581515 -12.027518348253402 a40.172948430996705,40.172948430996705 0 0,0 0.42800176876759344,0.5407662531231852 l -15.135468885224302 11.769432151215538" fill="#ffe815" stroke="none" /><path d="M 116.57777611688842 87.10902102172516 l 2.2056004641231155 -1.7150882613572767 a23.79395797240861,23.79395797240861 0 0,0 0.24796479300839774,0.32459387382478355 l -2.23471723448582 1.6769734742916111" fill="#ff0600" stroke="none" /><path d="M 116.7966241395341 87.39550010848427 l 7.6840735434355745 -5.766272040145745 a30.60702240352822,30.60702240352822 0 0,0 0.3117514418412993,0.4229507044557182 l -7.781927004860699 5.633515026421152" fill="#ff6809" stroke="none" /><path d="M 117.01052211995028 87.68569379921539 l 27.198751537989956 -19.689798605596746 a54.5776749396719,54.5776749396719 0 0,0 0.5428786786779619,0.7636268481200763 l -27.53274531519788 19.219994530767163" fill="#6eff28" stroke="none" /><path d="M 117.21940702142032 87.97951657250589 l 4.143494724116406 -2.8924811174503673 a26.053216356300947,26.053216356300947 0 0,0 0.25285299439928455,0.36892007543184624 l -4.192537455331015 2.8209263069484725" fill="#ff2703" stroke="none" /><path d="M 117.42321728460499 88.27688183743584 l 15.939598231254513 -10.724873051655324 a40.21181130835754,40.21181130835754 0 0,0 0.38043353208104264,0.5760248557136634 l -16.12135620225628 10.449668317602601" fill="#ffe815" stroke="none" /><path d="M 117.62189284568427 88.57770195909679 l 10.07102152772145 -6.527914479638865 a33.00163080857379,33.00163080857379 0 0,0 0.304058652807286,0.47803070501291384 l -10.181597872154626 6.354070099947279" fill="#ff890c" stroke="none" /><path d="M 117.81537515405839 88.88188828441811 l 20.34652158089986 -12.697734288711302 a44.98360682859729,44.98360682859729 0 0,0 0.40320742283260624,0.6586090229828426 l -20.561496968187868 12.346588149603905" fill="#dbff1b" stroke="none" /><line stroke="#e1ed5e" stroke-width="0.3" x1="172.87174338648825" x2="177.1583165268699" y1="56.24261187166439" y2="53.66864786411523" /><path d="M 173.72905801456457 55.72781907015455 a86.0,86.0 0 0,1 12.242430191666344,42.057860355516425" fill="none" id="id87" stroke="none" /><text fill="#e1ed5e" style="font-size:6.75px; font-family:Arial;" text-anchor="middle"><textPath startOffset="22.145653131862474" xlink:href="#id87">March</textPath></text><path d="M 118.00360718960297 89.18935116829356 l 3.3576851020304295 -2.016193429640356 a24.916514418474932,24.916514418474932 0 0,0 0.21704216852713182,0.368585052109333 l -3.391800980687329 1.9582572092374666" fill="#ff1602" stroke="none" /><path d="M 118.18653347947321 89.5 l 8.317346434031583 -4.80202220263151 a30.604044405263018,30.604044405263018 0 0,0 0.2587741515132828,0.45722913046367786 l -8.398553950566242 4.658536302068714" fill="#ff6809" stroke="none" /><path d="M 118.36410011445183 89.81374322990088 l 31.440930737450806 -17.43975428071966 a56.95381975547325,56.95381975547325 0 0,0 0.4668983299083031,0.8590403391764191 l -31.735674416974447 16.897459108068638" fill="#55ff2b" stroke="none" /><path d="M 118.53625476483649 90.13048839642627 l 4.358639504562288 -2.3207300348329984 a25.93796782343779,25.93796782343779 0 0,0 0.2058880925406952,0.39481756480935865 l -4.397835666077928 2.2455662269191414" fill="#ff2503" stroke="none" /><path d="M 118.70294669586156 90.45014215332178 l 19.216776785444214 -9.81222315160347 a42.57693753057766,42.57693753057766 0 0,0 0.32678830887414095,0.6537955245579681 l -19.38238500753009 9.480895770881752" fill="#f8ff18" stroke="none" /><path d="M 118.8641267826498 90.77261029715802 l 10.798755450544421 -5.282212423397706 a33.02143449703736,33.02143449703736 0 0,0 0.24470572093605308,0.5113408410625074 l -10.887840429440388 5.096059080270095" fill="#ff890c" stroke="none" /><path d="M 119.0197475246899 91.09779779509293 l 21.70973481354733 -10.161252081513103 a44.97005693649064,44.97005693649064 0 0,0 0.3212479598488786,0.7019847682959333 l -21.880967238251255 9.787078331002485" fill="#dbff1b" stroke="none" /><path d="M 119.16976305983485 91.42560881287824 l 5.205022700949762 -2.3281404489188735 a26.701973278374297,26.701973278374297 0 0,0 0.18356477260407092,0.4200321231275592 l -5.2442213555708035 2.2384462560154645" fill="#ff3004" stroke="none" /><path d="M 119.31412917781788 91.75594674310238 l 11.043075199000327 -4.713632140611455 a33.00699120545116,33.00699120545116 0 0,0 0.2179626966575079,0.5230311254443711 l -11.122363740194318 4.523368505725807" fill="#ff890c" stroke="none" /><path d="M 119.4528033332814 92.08871423366111 l 35.53341286674843 -14.451129671433842 a59.359595654013326,59.359595654013326 0 0,0 0.37577825236760065,0.947206672489235 l -35.77624979408215 13.83902198173104" fill="#3cff2e" stroke="none" /><path d="M 119.58574465831526 92.42381321644754 l 4.487237727452768 -1.7357599498241334 a25.811253997253623,25.811253997253623 0 0,0 0.15630473908202522,0.41461689053518974 l -4.516373150349234 1.658474779094786" fill="#ff2403" stroke="none" /><path d="M 119.71291397450082 92.76114493625339 l 17.9975625026389 -6.608954243185283 a40.172650631170185,40.172650631170185 0 0,0 0.23215933568966143,0.6493909808954466 l -18.108362008372506 6.299028305908919" fill="#ffe815" stroke="none" /><path d="M 119.83427380445688 93.10060997987247 l 11.325425986675002 -3.9395710574793137 a32.99105891473235,32.99105891473235 0 0,0 0.18147372678174178,0.5364948274621609 l -11.39138513502911 3.7445745555429912" fill="#ff890c" stroke="none" /><path d="M 119.94978838288452 93.4421083053983 l 18.230940760178765 -5.992872340366406 a40.19066752067463,40.19066752067463 0 0,0 0.2098245360348058,0.6572723706292131 l -18.331130011990826 5.679030936045806" fill="#ffe815" stroke="none" /><path d="M 120.05942366710727 93.78553927170692 l 4.617949064107124 -1.4306524245364816 a25.834482383722168,25.834482383722168 0 0,0 0.12760226588767262,0.42474644275224543 l -4.641827649998424 1.3511683781935124" fill="#ff2403" stroke="none" /><path d="M 120.16314734710363 94.1308016681162 l 9.252059762524576 -2.6931397559071435 a30.636057886613898,30.636057886613898 0 0,0 0.14264952081159524,0.5062128252144583 l -9.296927775410753 2.5339190067896724" fill="#ff6909" stroke="none" /><path d="M 120.26092885502905 94.47779374421319 l 17.573729086583047 -4.789798009450263 a39.2147774891693,39.2147774891693 0 0,0 0.17144424197179092,0.6510017118765302 l -17.653362809359567 4.487415793200934" fill="#ffdb14" stroke="none" /><path d="M 120.35273937422433 94.82641323984039 l 4.768741459795201 -1.2121954310615222 a25.920397633673126,25.920397633673126 0 0,0 0.10591873498222683,0.43218458358441736 l -4.7888477212937195 1.1301550228690098" fill="#ff2503" stroke="none" /><path d="M 120.43855184770803 95.1765574152323 l 23.32775326204785 -5.505286251664317 a44.968567937358046,44.968567937358046 0 0,0 0.1708572996527307,0.7528287875574013 l -23.418821423258244 5.1040231301678896" fill="#dbff1b" stroke="none" /><path d="M 120.51834098615036 95.52812308129327 l 9.383764664443634 -2.045147833434772 a30.604044405263018,30.604044405263018 0 0,0 0.10746725202270593,0.5142697045118227 l -9.417489627290706 1.883761677637545" fill="#ff6809" stroke="none" /><path d="M 120.592083275326 95.88100663000786 l 25.871961116238822 -5.175116809777712 a47.38446902999978,47.38446902999978 0 0,0 0.15269917654768536,0.7989866162276794 l -25.956986585068663 4.730227628516718" fill="#bfff1e" stroke="none" /><path d="M 120.65975698304385 96.23510406497455 l 4.73886834932488 -0.8635796732573865 a25.8169121939575,25.8169121939575 0 0,0 0.0757113928215159,0.43668319427481006 l -4.752994559638631 0.7821034460619838" fill="#ff2403" stroke="none" /><path d="M 120.7213421655516 96.59031103205396 l 16.579943649815785 -2.728223418168677 a37.80290851163901,37.80290851163901 0 0,0 0.09986899795520983,0.6412306080576345 l -16.62433413990926 2.443204628179601" fill="#ffc912" stroke="none" /><path d="M 120.77682067341334 96.94652285012252 l 42.696284722670526 -6.27488352691833 a64.15491736054814,64.15491736054814 0 0,0 0.1507808076995353,1.090974813138526 l -42.797710046925275 5.541020405579719" fill="#34ff5a" stroke="none" /><path d="M 120.82617615685814 97.30363454192243 l 4.925299131907687 -0.6376785805493175 a25.96640770687043,25.96640770687043 0 0,0 0.05343876040104434,0.442549595517788 l -4.935519978568395 0.5530353081081165" fill="#ff2603" stroke="none" /><path d="M 120.86939407059847 97.66154086499901 l 19.075457694946046 -2.1374448223159264 a40.19483671824591,40.19483671824591 0 0,0 0.07094887770168842,0.6863660321304268 l -19.1093389651294 1.809674267902568" fill="#ffe815" stroke="none" /><path d="M 120.9064616781168 98.02013634271609 l 28.648814187747895 -2.7130724896395337 a49.77699283625973,49.77699283625973 0 0,0 0.07325840578901413,0.8513737215103307 l -28.69116621623465 2.220877720753541" fill="#a3ff22" stroke="none" /><path d="M 120.93736805541906 98.37931529534042 l 4.830604031325334 -0.37391930289965786 a25.84505427756362,25.84505427756362 0 0,0 0.03044306030003755,0.44263541542923385 l -4.836311052790437 0.29094046331608986" fill="#ff2403" stroke="none" /><path d="M 120.96210409425399 98.7389718711861 l 23.934827449709825 -1.4398597839548397 a44.978097531806675,44.978097531806675 0 0,0 0.039748666640837316,0.7711135138906121 l -23.956017705807234 1.0287744766874969" fill="#dbff1b" stroke="none" /><path d="M 120.98066250479742 99.09900007780936 l 11.989389207202333 -0.5148759597239861 a33.000439609267715,33.000439609267715 0 0,0 0.019447179495538033,0.5661834122785352 l -11.996461073694718 0.30898628288133095" fill="#ff890c" stroke="none" /><path d="M 120.99303781780057 99.45929381324524 l 47.924071317316745 -1.234354078749736 a68.93996497306802,68.93996497306802 0 0,0 0.02031617565816188,1.1833153803584242 l -47.93819892457358 0.4114917824222453" fill="#3aff91" stroke="none" /><line stroke="#e1ed5e" stroke-width="0.3" x1="184.99686870605535" x2="189.99668451229388" y1="99.2704041080226" y2="99.22748670261217" /><path d="M 185.99683186730306 99.26182062694052 a86.0,86.0 0 0,1 -10.086455211305974,41.156179273409016" fill="none" id="id88" stroke="none" /><text fill="#e1ed5e" style="font-size:6.75px; font-family:Arial;" text-anchor="middle"><textPath startOffset="21.40746469413373" xlink:href="#id88">April</textPath></text><path d="M 120.99922638620191 99.81974689727618 l 4.883737237510175 -0.04192101050577445 a25.88391715492445,25.88391715492445 0 0,0 0.0,0.4443482264592021 l -4.883737237510175 -0.041921010505773855" fill="#ff2503" stroke="none" /><path d="M 120.99922638620191 100.18025310272382 l 14.384988475315033 0.12347782521292149 a35.38551841986467,35.38551841986467 0 0,0 -0.0104278905313292,0.6073723449749269 l -14.380749153185036 -0.37039708615691935" fill="#ffa90f" stroke="none" /><path d="M 120.99303781780057 100.54070618675476 l 33.58380951321534 0.8649998030866797 a54.594947329610044,54.594947329610044 0 0,0 -0.032172836266411514,0.9366770242528968 l -33.564011989952085 -1.4413830919036872" fill="#6eff28" stroke="none" /><path d="M 120.98066250479742 100.90099992219065 l 14.376437116708855 0.617386067793212 a35.38968761743594,35.38968761743594 0 0,0 -0.0312750643718106,0.6067278936125325 l -14.363720462880472 -0.8640857547824753" fill="#ffa90f" stroke="none" /><path d="M 120.96210409425399 101.26102812881392 l 14.370557498696833 0.8644970538793298 a35.3965370134459,35.3965370134459 0 0,0 -0.04169381496127493,0.6062189190023807 l -14.353599722570491 -1.111059397036054" fill="#ffaa0f" stroke="none" /><path d="M 120.93736805541906 101.62068470465957 l 4.961096699924091 0.38402026074251544 a25.975937301319064,25.975937301319064 0 0,0 -0.038229624714971225,0.4442861882534941 l -4.953773452511379 -0.46912749637166684" fill="#ff2603" stroke="none" /><path d="M 120.9064616781168 101.97986365728391 l 19.402699359603037 1.8374558022648715 a40.48950964658724,40.48950964658724 0 0,0 -0.0714690120090234,0.691397859726086 l -19.36829795511235 -2.170258184273889" fill="#ffec16" stroke="none" /><path d="M 120.86939407059847 102.33845913500097 l 40.15655302824179 4.499625525368712 a61.40786286081639,61.40786286081639 0 0,0 -0.1263771295284365,1.0465839240241128 l -40.07339381245369 -5.188303126316233" fill="#30ff39" stroke="none" /><path d="M 120.82617615685814 102.69636545807757 l 4.518327721955729 0.5849879836795594 a25.55603954592617,25.55603954592617 0 0,0 -0.06006336603444535,0.43458859609291545 l -4.507619839366074 -0.66246488797256" fill="#ff2003" stroke="none" /><path d="M 120.77682067341334 103.0534771498775 l 18.977288714533575 2.7890079222085498 a40.181137926226,40.181137926226 0 0,0 -0.10615188458730886,0.6815712472744813 l -18.926615337808 -3.1143673514144816" fill="#ffe815" stroke="none" /><path d="M 120.7213421655516 103.40968896794604 l 11.831356813107261 1.9468452612375031 a32.9904633150793,32.9904633150793 0 0,0 -0.09674874782261463,0.5580210674616154 l -11.796193247792413 -2.1496593616197064" fill="#ff890c" stroke="none" /><path d="M 120.65975698304385 103.76489593502545 l 4.6023420648868365 0.8387000363029541 a25.678137474799282,25.678137474799282 0 0,0 -0.08274927477181429,0.4329791721213499 l -4.5872664978328626 -0.9175817734576185" fill="#ff2203" stroke="none" /><path d="M 120.592083275326 104.11899336999214 l 18.802711576943725 3.761068916038532 a40.175181929695604,40.175181929695604 0 0,0 -0.14107666112111333,0.6751028937907282 l -18.735377204998247 -4.083288261114669" fill="#ffe815" stroke="none" /><path d="M 120.51834098615036 104.47187691870673 l 32.809714839152385 7.150724641801693 a54.57990843837079,54.57990843837079 0 0,0 -0.2073754224075803,0.9137343744611094 l -32.682128555187134 -7.712893350201819" fill="#6eff28" stroke="none" /><path d="M 120.43855184770803 104.8234425847677 l 4.659000314476373 1.099511388416275 a25.786983311392262,25.786983311392262 0 0,0 -0.10537356293493189,0.42996009559105436 l -4.6394392250251455 -1.179327308615429" fill="#ff2303" stroke="none" /><path d="M 120.35273937422433 105.17358676015961 l 16.27822777015883 4.137861843659845 a37.79591021571579,37.79591021571579 0 0,0 -0.16524105430298408,0.6274471979130312 l -16.204797235051114 -4.41668954594568" fill="#ffc912" stroke="none" /><path d="M 120.26092885502905 105.52220625578681 l 25.443830211829557 6.9348290679213775 a47.37196143728596,47.37196143728596 0 0,0 -0.22057627727250864,0.7827473927576418 l -25.32103544248247 -7.370584384582028" fill="#bfff1e" stroke="none" /><path d="M 120.16314734710363 105.8691983318838 l 4.611947707321028 1.3424707623550725 a25.80336230185085,25.80336230185085 0 0,0 -0.12744855686798015,0.4242347954168481 l -4.588222830449418 -1.4214431613626441" fill="#ff2303" stroke="none" /><path d="M 120.05942366710727 106.21446072829308 l 27.486952209347237 8.515528057047618 a49.775801636953645,49.775801636953645 0 0,0 -0.2598659123753522,0.8140262692840478 l -27.33672158119463 -8.986123360023049" fill="#a3ff22" stroke="none" /><path d="M 119.94978838288452 106.5578916946017 l 11.964271474412298 3.9328936742668246 a33.594103563434906,33.594103563434906 0 0,0 -0.18479089098973783,0.5463014340216504 l -11.894995161850195 -4.137696782762636" fill="#ff910d" stroke="none" /><path d="M 119.83427380445688 106.89939002012753 l 45.27920244842148 15.750457040770264 a68.94041167280781,68.94041167280781 0 0,0 -0.39840936370059554,1.1144218978869969 l -45.00215291467694 -16.52541389503818" fill="#3aff91" stroke="none" /><path d="M 119.71291397450082 107.23885506374661 l 2.5640117934515483 0.941540645819348 a23.731420008839457,23.731420008839457 0 0,0 -0.14370992641125788,0.38120765357221725 l -2.54747118322585 -0.9854165795857243" fill="#ff0500" stroke="none" /><path d="M 119.58574465831526 107.57618678355244 l 17.88701391963889 6.919081240939838 a40.17860662770059,40.17860662770059 0 0,0 -0.25435224776673193,0.6411338195580389 l -17.765602996906033 -7.225116077711442" fill="#ffe815" stroke="none" /><path d="M 119.4528033332814 107.91128576633889 l 26.64592176330562 10.83666441105483 a49.765229743112194,49.765229743112194 0 0,0 -0.32862624790827877,0.7885833627949393 l -26.455969670860856 -11.292480283291047" fill="#a3ff21" stroke="none" /><path d="M 119.31412917781788 108.2440532568976 l 3.7167224001199024 1.5864477826359134 a25.04114364587346,25.04114364587346 0 0,0 -0.1721472713338228,0.39390664582969515 l -3.688941246769114 -1.6500164982414531" fill="#ff1802" stroke="none" /><path d="M 119.16976305983485 108.57439118712176 l 10.947211791259562 4.896548591317859 a32.99239901395168,32.99239901395168 0 0,0 -0.2356843997044515,0.5150129476163141 l -10.861542926700055 -5.083750521148861" fill="#ff890c" stroke="none" /><path d="M 119.0197475246899 108.90220220490707 l 28.52550808788828 13.351378122472415 a52.495458552645566,52.495458552645566 0 0,0 -0.38901820065225656,0.8128984199847559 l -28.292110629276113 -13.839089044522273" fill="#85ff25" stroke="none" /><path d="M 118.8641267826498 109.22738970284198 l 36.6237447038957 17.91450877392641 a61.77043414960423,61.77043414960423 0 0,0 -0.47410304462772296,0.9485236782944022 l -36.31082174605624 -18.54056430838456" fill="#31ff3d" stroke="none" /><path d="M 118.70294669586154 109.54985784667822 l 4.27132313025673 2.180968024691331 a25.795917306187853,25.795917306187853 0 0,0 -0.20476053658718946,0.3926553275946914 l -4.2332545246945905 -2.253969595390526" fill="#ff2303" stroke="none" /><path d="M 118.5362547648365 109.86951160357373 l 16.939589638603717 9.019377356375653 a40.19111422041441,40.19111422041441 0 0,0 -0.3294803436754963,0.6062067222184001 l -16.782263945312884 -9.308838912068655" fill="#ffe815" stroke="none" /><line stroke="#e1ed5e" stroke-width="0.3" x1="174.33088141563837" x2="178.70328620479359" y1="141.23008692659167" y2="143.65538615756765" /><path d="M 175.20536237346943 141.71514677278685 a86.0,86.0 0 0,1 -30.301960400862466,31.631185727798858" fill="none" id="id89" stroke="none" /><text fill="#e1ed5e" style="font-size:6.75px; font-family:Arial;" text-anchor="middle"><textPath startOffset="22.145653131862474" xlink:href="#id89">May</textPath></text><path d="M 118.36410011445183 110.18625677009912 l 18.875522136154792 10.469933944503644 a42.584829225980435,42.584829225980435 0 0,0 -0.36007832508555276,0.6362238983874465 l -18.69301044604786 -10.792414612990212" fill="#f8ff18" stroke="none" /><path d="M 118.18653347947321 110.5 l 10.211380301055712 5.895543165612154 a32.791086331224314,32.791086331224314 0 0,0 -0.2856357982564489,0.485072031389533 l -10.108670792669498 -6.069966365295237" fill="#ff860c" stroke="none" /><path d="M 118.00360718960297 110.81064883170644 l 24.661873471336538 14.808746426358567 a49.76642094241827,49.76642094241827 0 0,0 -0.4460778436076462,0.7286346334816743 l -24.404027663273485 -15.2299181759648" fill="#a3ff21" stroke="none" /><path d="M 117.81537515405839 111.11811171558189 l 4.07367496810395 2.542274467794841 a25.80187330271825,25.80187330271825 0 0,0 -0.2377240955707738,0.3737417631600163 l -4.0294331809072865 -2.6118299056335292" fill="#ff2303" stroke="none" /><path d="M 117.62189284568427 111.42229804090321 l 4.035430662772881 2.6157174009192867 a25.809020498554723,25.809020498554723 0 0,0 -0.24417245849794408,0.3697082231583285 l -3.9899337653542095 -2.6846055024166766" fill="#ff2303" stroke="none" /><path d="M 117.423217284605 111.72311816256416 l 6.98624467797461 4.700657205535051 a29.42043899476014,29.42043899476014 0 0,0 -0.28553273402527984,0.41660079219202173 l -6.90452220713401 -4.819892732797117" fill="#ff5708" stroke="none" /><path d="M 117.21940702142032 112.02048342749411 l 12.48860078515175 8.718013261650876 a36.23052542761455,36.23052542761455 0 0,0 -0.36038141591214384,0.5069215932815971 l -12.337104270709645 -8.931112081641977" fill="#ffb510" stroke="none" /><path d="M 117.01052211995028 112.31430620078461 l 21.38076001701249 15.478021415121272 a47.39518982375449,47.39518982375449 0 0,0 -0.48274930403534233,0.6549421456122602 l -21.11190869339332 -15.84276987000241" fill="#beff1e" stroke="none" /><path d="M 116.79662413953412 112.60449989151573 l 3.8496589153442584 2.8888558187487763 a25.813040796212743,25.813040796212743 0 0,0 -0.2690063303201824,0.3521379216083335 l -3.7995006076697715 -2.954514653597987" fill="#ff2403" stroke="none" /><path d="M 116.57777611688842 112.89097897827486 l 7.588304687827539 5.900711622705272 a30.612531700318833,30.612531700318833 0 0,0 -0.32614528497193696,0.41207391323617504 l -7.485892972214041 -6.03010547985613" fill="#ff6809" stroke="none" /><path d="M 116.35404254752997 113.17365903436017 l 24.520917506641727 19.752315398675538 a52.48697125758976,52.48697125758976 0 0,0 -0.5712411537834701,0.6968213251034672 l -24.178229533619632 -20.170339005477498" fill="#85ff25" stroke="none" /><path d="M 116.1254893667686 113.45245675266167 l 31.30567578658584 26.116308166112173 a61.76894515047163,61.76894515047163 0 0,0 -0.6862395576207565,0.8083884733524271 l -30.85274166545797 -26.649863421914155" fill="#31ff3d" stroke="none" /><path d="M 115.89218393027572 113.72728997021213 l 3.635381724723449 3.1401561488737975 a25.80380900159063,25.80380900159063 0 0,0 -0.2924295738144965,0.33273117444443695 l -3.580941086950367 -3.2020996011295275" fill="#ff2303" stroke="none" /><path d="M 115.6541949942343 113.99807769240083 l 12.593675428258495 11.261342224405098 a37.89433305838058,37.89433305838058 0 0,0 -0.43777392023936607,0.48119022504632536 l -12.39850380717725 -11.475870025009096" fill="#ffca12" stroke="none" /><path d="M 115.41159269507618 114.26474011684316 l 18.181907919558206 16.82890253021887 a45.77486096766035,45.77486096766035 0 0,0 -0.5387138023662397,0.5720953895626552 l -17.890338283455705 -17.138539379726023" fill="#d2ff1c" stroke="none" /><path d="M 115.16444852881244 114.52719865689866 l 3.038925335697166 2.91122172832568 a25.20835824846432,25.20835824846432 0 0,0 -0.3020359836491688,0.30991552714193177 l -2.98850255089719 -2.9629599475353494" fill="#ff1b02" stroke="none" /><path d="M 114.91283532996324 114.78537596483092 l 18.72744177155296 18.567379128471348 a47.371663637459434,47.371663637459434 0 0,0 -0.577501364194055,0.5725654847576775 l -18.40594848722894 -18.886124623457686" fill="#bfff1e" stroke="none" /><path d="M 114.65682725009322 115.03919595460226 l 6.7041258930107785 6.879023767484926 a30.60553340439562,30.60553340439562 0 0,0 -0.3794029728539268,0.36345946555160136 l -6.5850504342915395 -6.993095363342108" fill="#ff6809" stroke="none" /><path d="M 114.39649973595853 115.28858382429668 l 32.906571901275164 34.945639017121465 a69.00041833785154,69.00041833785154 0 0,0 -0.8693074504322529,0.8046179981134177 l -32.301834679528945 -35.505374761367264" fill="#3aff92" stroke="none" /><path d="M 114.13192950727249 115.5334660781643 l 3.2577690926827043 3.5808589100049715 a25.841033979905603,25.841033979905603 0 0,0 -0.3306852177831482,0.29570076084793373 l -3.195818848076178 -3.6362552007362923" fill="#ff2403" stroke="none" /><path d="M 113.86319453409587 115.77377054828091 l 12.664434810755614 14.409802036406955 a40.184115924491195,40.184115924491195 0 0,0 -0.522050067228067,0.45093441425353936 l -12.415205263764692 -14.625080583125213" fill="#ffe815" stroke="none" /><path d="M 113.59037401385872 116.0094264158162 l 9.315137981803687 10.973209119983453 a35.39385681500722,35.39385681500722 0 0,0 -0.4665679990187106,0.38922761884732077 l -9.125395648623082 -11.131498922742646" fill="#ffa90f" stroke="none" /><path d="M 113.31354834802062 116.24036423190432 l 2.464389237420389 3.0061541655679176 a24.887181135562734,24.887181135562734 0 0,0 -0.3327169967542157,0.26801326078476817 l -2.4124214703109206 -3.0480157201460893" fill="#ff1602" stroke="none" /><path d="M 113.03279911837588 116.46651593811092 l 5.301856639761695 6.698722666347268 a29.542983623373033,29.542983623373033 0 0,0 -0.400363778334105,0.31132529561126576 l -5.186082916792359 -6.788749013579327" fill="#ff5908" stroke="none" /><path d="M 112.7482090630111 116.68781488649013 l 19.918973088140064 26.074575180001535 a53.81232938551605,53.81232938551605 0 0,0 -0.73888687324109,0.5544744846489142 l -19.468433225988207 -26.412668691914465" fill="#76ff27" stroke="none" /><path d="M 112.45986205192187 116.90419585922612 l 22.77231994734723 30.89502555925513 a59.38073944169623,59.38073944169623 0 0,0 -0.8257287397624195,0.5977639292033753 l -22.238610197210846 -31.281390259831582" fill="#3cff2e" stroke="none" /><path d="M 112.16784306229584 117.11559508785304 l 2.8465821371915743 4.0040742632074675 a25.91280373809687,25.91280373809687 0 0,0 -0.36475961840154364,0.25463054230384297 l -2.777427427616272 -4.0523496213164325" fill="#ff2503" stroke="none" /><path d="M 111.8722381534696 117.32195027204791 l 9.587065977946352 13.987815774761646 a37.95791332134255,37.95791332134255 0 0,0 -0.5406358462145601,0.36376392514436817 l -9.345533843634788 -14.150329373963135" fill="#ffcb12" stroke="none" /><path d="M 111.5731344415666 117.5232005979908 l 10.57379275213723 16.010069909133488 a40.18664722301662,40.18664722301662 0 0,0 -0.5789065798276891,0.37524025089343704 l -10.297400540052532 -16.18922400173082" fill="#ffe815" stroke="none" /><path d="M 111.27062007382361 117.71928675628689 l 2.303921102391154 3.6221466440825387 a25.292784499282682,25.292784499282682 0 0,0 -0.36835432298438636,0.22988034091019255 l -2.2414026506170526 -3.661162781834279" fill="#ff1c02" stroke="none" /><path d="M 110.96478420261333 117.91015095944535 l 6.283080007362736 10.262939000233057 a33.03349539001142,33.03349539001142 0 0,0 -0.4861700648315931,0.29193115513082074 l -6.105977185973707 -10.3692841558998" fill="#ff8a0c" stroke="none" /><line stroke="#e1ed5e" stroke-width="0.3" x1="143.1302829299769" x2="145.66735839644613" y1="173.24464959558577" y2="177.55315839532614" /><path d="M 143.63769802327073 174.10635135553383 a86.0,86.0 0 0,1 -40.68552437913181,11.842963189579606" fill="none" id="id90" stroke="none" /><text fill="#e1ed5e" style="font-size:6.75px; font-family:Arial;" text-anchor="middle"><textPath startOffset="21.407464694133747" xlink:href="#id90">June</textPath></text><path d="M 110.65571695917076 118.09573695890943 l 2.4410762336867013 4.145481115038687 a25.810807297513843,25.810807297513843 0 0,0 -0.3837299261375054,0.2215465761516048 l -2.3695538396887974 -4.186774588466464" fill="#ff2403" stroke="none" /><path d="M 110.34350942703117 118.27599006163325 l 14.172658756094636 25.041730024086224 a49.774163737907784,49.774163737907784 0 0,0 -0.7472187808593145,0.4144696618857749 l -13.740695787079227 -25.28133260140514" fill="#a3ff22" stroke="none" /><path d="M 110.02825361518725 118.45085714620011 l 1.784879017036729 3.283976356234168 a24.737685622649803,24.737685622649803 0 0,0 -0.37484801127063516,0.1995854526034142 l -1.7282421899795402 -3.3141322765601506" fill="#ff1402" stroke="none" /><path d="M 109.71004243097381 118.62028667847754 l 6.652307261580877 12.756676313672017 a35.387007418997264,35.387007418997264 0 0,0 -0.5410383232028345,0.2762580228780453 l -6.43234171666446 -12.868992288222898" fill="#ffa90f" stroke="none" /><path d="M 109.3889696526874 118.78422872680471 l 7.510944938429662 15.026921259407379 a37.799483813634026,37.799483813634026 0 0,0 -0.5829035912490326,0.2851273561513556 l -7.25188109791856 -15.153642365655958" fill="#ffc912" stroke="none" /><path d="M 109.06512990194946 118.94263497670748 l 2.0763735285680465 4.338822085550506 a25.810062797947545,25.810062797947545 0 0,0 -0.4012988952007164,0.18782814572302486 l -2.001585919495824 -4.373826462844065" fill="#ff2303" stroke="none" /><path d="M 108.73861861582097 119.09545874513695 l 3.9966659412221124 8.733436364934084 a30.6044911050028,30.6044911050028 0 0,0 -0.4795965635752669,0.21451744266520303 l -3.8461559747912184 -8.800757558509138" fill="#ff6809" stroke="none" /><path d="M 108.4095320186766 119.2426549942271 l 3.8423398114749894 8.792025430022946 a30.594961510554164,30.594961510554164 0 0,0 -0.48305791016240207,0.2061886974494396 l -3.690846826142156 -8.85668877713179" fill="#ff6809" stroke="none" /><path d="M 108.07796709384702 119.3841803445677 l 24.181550469158918 58.02691814162999 a83.86390547928046,83.86390547928046 0 0,0 -1.3336179572358215,0.542370813196004 l -23.181878050732657 -58.433476211405285" fill="#4dd3ff" stroke="none" /><path d="M 107.74402155503746 119.51999308798841 l 1.014659132520006 2.557603838353341 a23.75152149712954,23.75152149712954 0 0,0 -0.3802819207293412,0.14710121632420964 l -0.9706049492971355 -2.574644942815591" fill="#ff0500" stroke="none" /><path d="M 107.407793817531 119.65005319985036 l 1.1806514448996706 3.131818227426206 a24.34697225025585,24.34697225025585 0 0,0 -0.39234664446964335,0.14407512241654774 l -1.1267156487759002 -3.1516241988514753" fill="#ff0e01" stroke="none" /><path d="M 107.06938296918513 119.77432235084164 l 3.2302724116787114 9.035646848953839 a30.595706010120466,30.595706010120466 0 0,0 -0.4960791093644502,0.17256206554806025 l -3.0746875302692396 -9.08976734707049" fill="#ff6809" stroke="none" /><path d="M 106.72888874123015 119.89276391827305 l 1.1857137127157082 3.5053519041244443 a24.70046064433483,24.70046064433483 0 0,0 -0.4028260066815083,0.13241690953737625 l -1.1253649683864657 -3.5251897350638397" fill="#ff1302" stroke="none" /><path d="M 106.38641147887787 120.00534299687104 l 1.0813502110521813 3.3873141346098716 a24.555729928646215,24.555729928646215 0 0,0 -0.40266645798113926,0.12474709798507065 l -1.023043120199418 -3.4053778204015863" fill="#ff1101" stroke="none" /><path d="M 106.0420521117495 120.11202640906438 l 4.141825201748724 13.78678904098011 a35.39549471405308,35.39549471405308 0 0,0 -0.583418862003297,0.1698247278915586 l -3.9045463273638203 -13.855857463174187" fill="#ffa90f" stroke="none" /><path d="M 105.69591212413111 120.21278271476187 l 1.3040059559772341 4.627457108275511 a25.807680399335386,25.807680399335386 0 0,0 -0.4274472019819982,0.11650263567347167 l -1.2243773530605409 -4.649160238093125" fill="#ff2303" stroke="none" /><path d="M 105.3480935250658 120.30758222061773 l 1.2227846917365646 4.643112643630788 a25.80142660297847,25.80142660297847 0 0,0 -0.42928008963400455,0.10912132009822999 l -1.1428993088771628 -4.6634191955642885" fill="#ff2303" stroke="none" /><path d="M 104.9986988182912 120.39639698878246 l 2.8542356057767764 11.646255281857972 a32.990910014819086,32.990910014819086 0 0,0 -0.5512118830029059,0.13008450351654247 l -2.6538915690339913 -11.69353592902074" fill="#ff890c" stroke="none" /><path d="M 104.64783097203109 120.47920084513623 l 2.124629199746945 9.361508274481153 a30.599577407865226,30.599577407865226 0 0,0 -0.5132533904105778,0.11186118758696262 l -1.963613392717231 -9.396600920201834" fill="#ff6809" stroke="none" /><path d="M 104.29559338865022 120.5559693870025 l 0.985370257192304 4.71535338871366 a25.81720999378402,25.81720999378402 0 0,0 -0.43459402221847176,0.0869309759591462 l -0.9042797494428735 -4.731573761335667" fill="#ff2403" stroke="none" /><path d="M 103.94208987418118 120.62667999033965 l 2.7787483621140523 14.5395856178729 a35.80273597681888,35.80273597681888 0 0,0 -0.6046660426104581,0.11019029544928895 l -2.5287475859525372 -14.585144087253552" fill="#ffaf10" stroke="none" /><path d="M 103.58742460773223 120.69131181640829 l 0.8259496938405537 4.763858346482486 a25.834929083461944,25.834929083461944 0 0,0 -0.4376221658102803,0.0720105608493144 l -0.7440500249772012 -4.7773349058274714" fill="#ff2403" stroke="none" /><path d="M 103.2317021107853 120.74984581791261 l 2.614406319478113 16.786364019598587 a37.988735603387354,37.988735603387354 0 0,0 -0.645220393306464,0.09482517843152846 l -2.3258608205639635 -16.828770271328995" fill="#ffcc13" stroke="none" /><path d="M 102.875027216393 120.80226474461374 l 0.6916936193746952 5.0047504630042 a26.05232295682139,26.05232295682139 0 0,0 -0.4435372975394161,0.05742478309252741 l -0.6056784999445037 -5.015886842297122" fill="#ff2703" stroke="none" /><path d="M 102.51750503828377 120.84855314841334 l 1.438412804884265 11.912121467860853 a32.9986528103086,32.9986528103086 0 0,0 -0.5629634570225458,0.06308122958877846 l -1.2337134462609198 -11.935058457956602" fill="#ff890c" stroke="none" /><path d="M 102.15924093988457 120.88869738790638 l 1.2334837956975941 11.932836797078622 a32.9964193116097,32.9964193116097 0 0,0 -0.5639252046508493,0.05340430319126041 l -1.0284590276617296 -11.952252855775066" fill="#ff890c" stroke="none" /><path d="M 101.80034050326958 120.92268563240118 l 0.42357699127274834 4.922606703244856 a25.94079692178973,25.94079692178973 0 0,0 -0.4439965101871596,0.034368137918668044 l -0.339011486310353 -4.929152608158578" fill="#ff2503" stroke="none" /><path d="M 101.44090949804482 120.95050786540614 l 1.1522222109308955 16.753058068920136 a37.79263441762407,37.79263441762407 0 0,0 -0.6476139496654765,0.03895884704457352 l -0.8644639091329539 -16.7703688937894" fill="#ffc912" stroke="none" /><path d="M 101.08105385017728 120.97215588758144 l 0.398765769430418 7.73594939581839 a28.746220187519352,28.746220187519352 0 0,0 -0.4930308567448029,0.021172866369831112 l -0.26590915208478555 -7.741654830614053" fill="#ff4e07" stroke="none" /><path d="M 100.72087961077811 120.9876233191556 l 0.7480857653667214 21.77970082548451 a42.792544604977984,42.792544604977984 0 0,0 -0.7343744444127565,0.018914880682581344 l -0.37409800688322115 -21.789333423517135" fill="#f6ff19" stroke="none" /><line stroke="#e1ed5e" stroke-width="0.3" x1="101.45913802915013" x2="101.54496967792366" y1="184.9874750549273" y2="189.98673829345242" /><path d="M 101.47630435890484 185.9873277026323 a86.0,86.0 0 0,1 -42.54439059252881,-10.42667462771756" fill="none" id="id91" stroke="none" /><text fill="#e1ed5e" style="font-size:6.75px; font-family:Arial;" text-anchor="middle"><textPath startOffset="22.145653131862474" xlink:href="#id91">July</textPath></text><path d="M 100.36049292484886 120.99690560180557 l 0.1031372232126784 6.007226191018649 a27.008111500036634,27.008111500036634 0 0,0 -0.4636301480615299,0.003979707212419529 l -7.357814517440266e-16 -6.008111500036634" fill="#ff3505" stroke="none" /><path d="M 100.0 121.0 l 2.04184367478527e-15 16.672918887363124 a37.672918887363124,37.672918887363124 0 0,0 -0.6467057484428141,-0.005551191056388062 l 0.28621282359396 -16.670462094501172" fill="#ffc712" stroke="none" /><path d="M 99.63950707515114 120.99690560180557 l -0.20592682158379427 11.994204977775123 a32.99597261186992,32.99597261186992 0 0,0 -0.566252819933538,-0.014584664004450963 l 0.41179295558807627 -11.988902596420624" fill="#ff890c" stroke="none" /><path d="M 99.27912038922189 120.98762331915562 l -0.6314645936932942 18.384402657072656 a39.395244184040294,39.395244184040294 0 0,0 -0.6756739099967116,-0.029016344941162734 l 0.9469642642908447 -18.370853743705663" fill="#ffde14" stroke="none" /><path d="M 98.91894614982273 120.97215588758144 l -0.40883781873613434 7.93134446157979 a28.94187467354285,28.94187467354285 0 0,0 -0.4959474791023479,-0.02983496879656419 l 0.5449296499709285 -7.923157514958534" fill="#ff5107" stroke="none" /><path d="M 98.55909050195518 120.95050786540614 l -0.5304014619915024 7.711920850236654 a28.730138996887284,28.730138996887284 0 0,0 -0.491738225709447,-0.03806364863980446 l 0.6627086824761854 -7.701679434601795" fill="#ff4e07" stroke="none" /><path d="M 98.19965949673042 120.92268563240118 l -2.123374019899618 24.67682475491982 a45.768011571650405,45.768011571650405 0 0,0 -0.7821980636221431,-0.07407496987327788 l 2.5466716469067765 -24.63673802954136" fill="#d2ff1c" stroke="none" /><path d="M 97.84075906011543 120.88869738790638 l -0.7816998974856688 7.56223740719203 a28.602531771223553,28.602531771223553 0 0,0 -0.48796477414056666,-0.05467747073957016 l 0.9114005732270347 -7.547704175945489" fill="#ff4c07" stroke="none" /><path d="M 97.48249496171623 120.84855314841334 l -2.0162805387766807 16.69769527192454 a37.81898970227108,37.81898970227108 0 0,0 -0.6438632177259804,-0.08336098412532145 l 2.302621578393455 -16.66062269159882" fill="#ffc912" stroke="none" /><path d="M 97.12497278360702 120.80226474461374 l -1.9141796840436043 13.850050646196525 a34.981701855103836,34.981701855103836 0 0,0 -0.5941473721348863,-0.08731920311538272 l 2.1516521617861755 -13.815150369782259" fill="#ffa40f" stroke="none" /><path d="M 96.76829788921471 120.74984581791261 l -0.8984236204399617 5.768524128843697 a26.83806779909384,26.83806779909384 0 0,0 -0.45461449955832534,-0.07480664290121491 l 0.9973156230513506 -5.752251487446813" fill="#ff3204" stroke="none" /><path d="M 96.41257539226777 120.69131181640829 l -3.2763018821639234 18.896838612977245 a40.178755527613845,40.178755527613845 0 0,0 -0.6785718587994333,-0.12365839709118603 l 3.600208474514414 -18.83781204195469" fill="#ffe815" stroke="none" /><path d="M 96.05791012581884 120.62667999033965 l -7.4056352329188355 38.74941286221448 a60.45073421838181,60.45073421838181 0 0,0 -1.0175974761158066,-0.2035479947026087 l 8.0697291945656 -38.61657547084901" fill="#31ff2f" stroke="none" /><path d="M 95.70440661134978 120.55596938700252 l -1.5568192175484474 7.449943530870118 a28.61087016636611,28.61087016636611 0 0,0 -0.479896369801164,-0.10459118019987683 l 1.684478003968748 -7.4221208925365225" fill="#ff4c07" stroke="none" /><path d="M 95.35216902796893 120.47920084513623 l -0.8322864966590506 3.6672078714444147 a24.760467309378566,24.760467309378566 0 0,0 -0.41369770653502713,-0.09763153230181253 l 0.8951163569339656 -3.6523801954963746" fill="#ff1402" stroke="none" /><path d="M 95.00130118170881 120.39639698878247 l -1.4649356271944045 5.977437269461739 a27.154331214857848,27.154331214857848 0 0,0 -0.45178950440362875,-0.11484312531028956 l 1.567330424823412 -5.951408912316187" fill="#ff3705" stroke="none" /><path d="M 94.6519064749342 120.30758222061772 l -2.3130751295213994 8.78312302413294 a30.08259690902688,30.08259690902688 0 0,0 -0.4982517482449524,-0.13580072961126846 l 2.4635082787010467 -8.742121800377529" fill="#ff6108" stroke="none" /><path d="M 94.30408787586889 120.21278271476187 l -3.412030450470166 12.10809236668571 a33.579660271848695,33.579660271848695 0 0,0 -0.5534887233679789,-0.16111250074133562 l 3.619379186219752 -12.047736171641859" fill="#ff910d" stroke="none" /><path d="M 93.95794788825049 120.11202640906438 l -1.438729359533379 4.789062116522048 a26.000505787006947,26.000505787006947 0 0,0 -0.4263579865633876,-0.1320867941005176 l 1.5207279789684 -4.763658734614881" fill="#ff2603" stroke="none" /><path d="M 93.61358852112213 120.00534299687104 l -10.462153857274156 32.77254794700165 a55.40198485947865,55.40198485947865 0 0,0 -0.90352000493121,-0.29700497180853613 l 11.02319659985311 -32.58812205379109" fill="#65ff29" stroke="none" /><path d="M 93.27111125876986 119.89276391827306 l -1.6087194175659179 4.755893107326095 a26.02060727529703,26.02060727529703 0 0,0 -0.421898408815331,-0.14675816720015805 l 1.6901235984262706 -4.727576507557346" fill="#ff2703" stroke="none" /><path d="M 92.93061703081489 119.77432235084164 l -2.5687191982013373 7.185164769745651 a28.630524954916417,28.630524954916417 0 0,0 -0.4613752494562469,-0.16942338231343482 l 2.691683599311703 -7.140010538423496" fill="#ff4c07" stroke="none" /><path d="M 92.59220618246901 119.65005319985036 l -2.5342669083087523 6.722444063310212 a28.18427191487652,28.18427191487652 0 0,0 -0.45125399900981555,-0.17455474085698675 l 2.649293169812096 -6.677949434315185" fill="#ff4606" stroke="none" /><path d="M 92.25597844496254 119.51999308798841 l -3.7012353561218676 9.329530923312063 a31.036896453109527,31.036896453109527 0 0,0 -0.49355395757191217,-0.20072409783625086 l 3.860843774884221 -9.26461956889652" fill="#ff6e0a" stroke="none" /><path d="M 91.92203290615298 119.3841803445677 l -2.90529825740987 6.9716581810896034 a28.552799200194748,28.552799200194748 0 0,0 -0.450814605737445,-0.19242594809582161 l 3.0245479383177463 -6.920757583334378" fill="#ff4b07" stroke="none" /><path d="M 91.59046798132341 119.24265499422711 l -1.9665166588936074 4.499774960538758 a25.910719139311233,25.910719139311233 0 0,0 -0.4060414471961572,-0.18161717469213548 l 2.0434715089454 -4.465354034936768" fill="#ff2503" stroke="none" /><path d="M 90.93487009805054 118.94263497670748 l -2.0266881416938802 4.234998736363702 a25.69496316499765,25.69496316499765 0 0,0 -0.3962404984082451,-0.19382108363606262 l 2.099088889364195 -4.199583902630418" fill="#ff2203" stroke="none" /><path d="M 90.6110303473126 118.78422872680471 l -3.4484413583161095 6.899192735918797 a28.713015506862394,28.713015506862394 0 0,0 -0.4389984600842525,-0.22415574170688746 l 3.5663670401139447 -6.838979042539074" fill="#ff4d07" stroke="none" /><path d="M 90.28995756902619 118.62028667847754 l -3.528087115899594 6.7655722404608545 a28.630227155089894,28.630227155089894 0 0,0 -0.43383135653908994,-0.23099076170873173 l 3.643707288225246 -6.70401101102955" fill="#ff4c07" stroke="none" /><path d="M 89.97174638481275 118.45085714620012 l -6.077064380131505 11.181113985415882 a33.72587998666991,33.72587998666991 0 0,0 -0.5062990321594035,-0.28083553846288073 l 6.268107600447011 -11.075145531519853" fill="#ff930d" stroke="none" /><line stroke="#e1ed5e" stroke-width="0.3" x1="58.13341422392154" x2="55.67067388415222" y1="173.97424548756322" y2="178.32567169271397" /><path d="M 57.64086615596768 174.84453072859336 a86.0,86.0 0 0,1 -31.369924170532247,-30.572349798747897" fill="none" id="id92" stroke="none" /><text fill="#e1ed5e" style="font-size:6.75px; font-family:Arial;" text-anchor="middle"><textPath startOffset="22.145653131862474" xlink:href="#id92">August</textPath></text><path d="M 89.65649057296885 118.27599006163327 l -2.96075051868633 5.231362472883445 a27.011089498301832,27.011089498301832 0 0,0 -0.4015745520317471,-0.2318491757152343 l 3.050117538578477 -5.179766399892039" fill="#ff3505" stroke="none" /><path d="M 89.34428304082925 118.09573695890944 l -6.661752876183837 11.31311278204808 a34.12880315195118,34.12880315195118 0 0,0 -0.502290243436559,-0.3016108592127499 l 6.854975876177823 -11.197087922299412" fill="#ff990e" stroke="none" /><path d="M 89.03521579738668 117.91015095944536 l -2.588769526890272 4.22856046859236 a25.958069311727876,25.958069311727876 0 0,0 -0.37804327347092004,-0.23592696260546742 l 2.6609769291509044 -4.183497709145345" fill="#ff2603" stroke="none" /><path d="M 88.72937992617639 117.7192867562869 l -5.2902279936591015 8.317117089546302 a30.857025357891576,30.857025357891576 0 0,0 -0.4445092150748567,-0.2881255028035459 l 5.432222840990968 -8.225077745038861" fill="#ff6c09" stroke="none" /><path d="M 88.4268655584334 117.5232005979908 l -1.8034924031979256 2.730717362504933 a24.2725222936259,24.2725222936259 0 0,0 -0.3457143578700804,-0.2326120487165717 l 1.8501030491650117 -2.69935563973124" fill="#ff0d01" stroke="none" /><path d="M 88.1277618465304 117.32195027204791 l -10.842691470773055 15.819810893618289 a40.1789044275271,40.1789044275271 0 0,0 -0.5655753038112925,-0.39481548685192724 l 11.112661865758113 -15.631350590961233" fill="#ffe815" stroke="none" /><path d="M 87.83215693770417 117.11559508785305 l -11.968948697049452 16.83582525491026 a41.65673606663153,41.65673606663153 0 0,0 -0.579264665585553,-0.4193429462667482 l 12.256194373008958 -16.627881537270447" fill="#fffa17" stroke="none" /><path d="M 87.54013794807813 116.9041958592261 l -12.605604004342348 17.101922808236893 a42.245635223574396,42.245635223574396 0 0,0 -0.5800667927754155,-0.4352929354060297 l 12.89732378602853 -16.883010845566847" fill="#fcff18" stroke="none" /><path d="M 87.2517909369889 116.68781488649013 l -2.1053829835452915 2.7560139091625047 a24.468176779649397,24.468176779649397 0 0,0 -0.3315904659235925,-0.2578467519091876 l 2.1523833941041124 -2.719466105632524" fill="#ff1001" stroke="none" /><path d="M 86.96720088162412 116.46651593811092 l -4.7822425308381415 6.042207214176062 a28.70571941111266,28.70571941111266 0 0,0 -0.38376707671751836,-0.30913559155765435 l 4.885260377910922 -5.959223328824997" fill="#ff4d07" stroke="none" /><path d="M 86.68645165197938 116.24036423190432 l -5.239635509960113 6.3915033693345356 a29.264689685490296,29.264689685490296 0 0,0 -0.38577224798721155,-0.32182492973637844 l 5.348582092109217 -6.300616255686287" fill="#ff5507" stroke="none" /><path d="M 86.40962598614128 116.0094264158162 l -7.571657290108669 8.919393249086568 a32.699810684396,32.699810684396 0 0,0 -0.4248180648844201,-0.3669477264319372 l 7.723654834755951 -8.788101390189908" fill="#ff850c" stroke="none" /><path d="M 86.13680546590413 115.77377054828092 l -11.729437613323872 13.345946860797849 a38.767779949563106,38.767779949563106 0 0,0 -0.4961075383268238,-0.44362241992273327 l 11.956810178474067 -13.142628910991732" fill="#ffd614" stroke="none" /><path d="M 85.86807049272751 115.53346607816431 l -11.5662225824087 12.71330472203998 a38.18736808767605,38.18736808767605 0 0,0 -0.48110670037496006,-0.44530517936107816 l 11.782759054097628 -12.512881796546525" fill="#ffce13" stroke="none" /><path d="M 85.60350026404147 115.28858382429668 l -3.3043662627259556 3.50912246173845 a25.820039092135957,25.820039092135957 0 0,0 -0.3200793615102932,-0.30662878783877945 l 3.3641181101015634 -3.451881543594088" fill="#ff2403" stroke="none" /><path d="M 85.34317274990678 115.03919595460226 l -6.771884226327209 6.948549786650953 a30.70261614784107,30.70261614784107 0 0,0 -0.3742913241426476,-0.3710922722189722 l 6.8901674705998195 -6.831277504203322" fill="#ff6909" stroke="none" /><path d="M 85.08716467003676 114.78537596483092 l -29.43880675070893 29.18719452971435 a62.45522485068647,62.45522485068647 0 0,0 -0.74831232902508,-0.7678343722978279 l 29.935505880884822 -28.677537465348784" fill="#32ff45" stroke="none" /><path d="M 84.83555147118756 114.52719865689866 l -10.482104313098736 10.0416188171562 a35.51580584396707,35.51580584396707 0 0,0 -0.41797734402344555,-0.44387745479535917 l 10.652937490858434 -9.86019990241635" fill="#ffab0f" stroke="none" /><path d="M 84.58840730492382 114.26474011684316 l -6.584174737520832 6.094213841027957 a29.971666473648263,29.971666473648263 0 0,0 -0.34624739029082935,-0.38058653554475347 l 6.6878198286535415 -5.98028972992553" fill="#ff5f08" stroke="none" /><path d="M 84.3458050057657 113.99807769240083 l -7.329263587301055 6.553872694246634 a30.832159072377173,30.832159072377173 0 0,0 -0.34941489207116533,-0.39757000596993675 l 7.440689543330813 -6.4270904104653965" fill="#ff6b09" stroke="none" /><path d="M 84.1078160697243 113.72728997021213 l -21.425900046001193 18.507182152851982 a49.3122762069756,49.3122762069756 0 0,0 -0.5478486726155376,-0.6453643587952091 l 21.740443282123845 -18.136651011607217" fill="#a8ff21" stroke="none" /><path d="M 83.8745106332314 113.45245675266167 l -16.197026424036977 13.51213551013857 a42.09316171239627,42.09316171239627 0 0,0 -0.4581202856033756,-0.5588322591196353 l 16.426593528878985 -13.232100969320438" fill="#feff18" stroke="none" /><path d="M 83.64595745247003 113.17365903436017 l -16.52562155989454 13.311870941280063 a42.22032223832022,42.22032223832022 0 0,0 -0.44981444732584924,-0.5683258599175534 l 16.75170243786195 -13.02622513744783" fill="#fdff18" stroke="none" /><path d="M 83.4222238831116 112.89097897827486 l -24.884824763251338 19.350590250421217 a52.52300503659865,52.52300503659865 0 0,0 -0.5473597997938102,-0.7165115484157119 l 25.213336540399442 -18.920557788764636" fill="#84ff25" stroke="none" /><path d="M 83.20337586046588 112.60449989151573 l -10.218555395231185 7.668194471738142 a33.77576145761198,33.77576145761198 0 0,0 -0.3440270077524525,-0.46673870831611164 l 10.348684422567468 -7.4916494541531495" fill="#ff940d" stroke="none" /><path d="M 82.98947788004972 112.3143062007846 l -7.074051468724191 5.121067728063032 a29.733128812605912,29.733128812605912 0 0,0 -0.2957524610674845,-0.41601287458682956 l 7.160919028321636 -4.998877626766699" fill="#ff5c08" stroke="none" /><path d="M 82.78059297857968 112.02048342749411 l -4.26082679324084 2.9743880141669243 a26.196309172943703,26.196309172943703 0 0,0 -0.2542417460478463,-0.3709463055904408 l 4.311258276104011 -2.900806973506432" fill="#ff2904" stroke="none" /><path d="M 82.576782715395 111.72311816256416 l -4.4217019949084415 2.975118436464618 a26.329425695398047,26.329425695398047 0 0,0 -0.2490958772822973,-0.37716290671201397 l 4.472122311111465 -2.898775651413543" fill="#ff2b04" stroke="none" /><path d="M 82.37810715431573 111.42229804090323 l -4.8173523609997355 3.122549598799987 a26.740836155735128,26.740836155735128 0 0,0 -0.2463751765364522,-0.38734269934441795 l 4.8702452291620775 -3.039393224776897" fill="#ff3104" stroke="none" /><path d="M 82.18462484594161 111.11811171558189 l -6.7458359738799745 4.209900567572576 a28.951702067818,28.951702067818 0 0,0 -0.259506562509812,-0.4238844671844737 l 6.8171105008451915 -4.093478984263545" fill="#ff5107" stroke="none" /><path d="M 81.99639281039703 110.81064883170644 l -9.763238869083043 5.862544420246884 a32.38816316594304,32.38816316594304 0 0,0 -0.28212602493607625,-0.47911166898179985 l 9.86243860414889 -5.694081582971526" fill="#ff810b" stroke="none" /><line stroke="#e1ed5e" stroke-width="0.3" x1="26.387840678322732" x2="22.057713659400548" y1="142.50000000000003" y2="145.00000000000006" /><path d="M 25.521815274538298 143.00000000000003 a86.0,86.0 0 0,1 -11.493303480769221,-40.785679425670985" fill="none" id="id93" stroke="none" /><text fill="#e1ed5e" style="font-size:6.75px; font-family:Arial;" text-anchor="middle"><textPath startOffset="21.40746469413373" xlink:href="#id93">September</textPath></text><path d="M 81.81346652052679 110.50000000000001 l -6.649234907355109 3.8389375636665335 a28.67787512733306,28.67787512733306 0 0,0 -0.24248732308084014,-0.42845186519731143 l 6.714155595457328 -3.7242289283701004" fill="#ff4d07" stroke="none" /><path d="M 81.63589988554817 110.18625677009913 l -4.166724440591004 2.3112118087782805 a25.76479722431654,25.76479722431654 0 0,0 -0.21121569801829235,-0.3886130946337924 l 4.205785488224627 -2.239343880669901" fill="#ff2303" stroke="none" /><path d="M 81.4637452351635 109.86951160357371 l -2.755183787176651 1.466980180327598 a24.121388881667112,24.121388881667112 0 0,0 -0.19146861389006098,-0.367166313217246 l 2.7799604700416616 -1.419467624005849" fill="#ff0b01" stroke="none" /><path d="M 81.29705330413844 109.54985784667822 l -10.442853939530158 5.33219562980435 a32.7254214694767,32.7254214694767 0 0,0 -0.25117553679203525,-0.5025193294057632 l 10.53284938953393 -5.152144444234834" fill="#ff850c" stroke="none" /><path d="M 81.1358732173502 109.22738970284198 l -4.075532031685001 1.993546944211657 a25.536980357028902,25.536980357028902 0 0,0 -0.18924208726780903,-0.39544317843403803 l 4.1091533769127215 -1.9232912637125141" fill="#ff1f03" stroke="none" /><path d="M 80.9802524753101 108.90220220490708 l -6.995135728928877 3.2740767262477224 a28.723438500790586,28.723438500790586 0 0,0 -0.20518866656661836,-0.4483742671065692 l 7.050308860350551 -3.1535134769264643" fill="#ff4e07" stroke="none" /><path d="M 80.83023694016515 108.57439118712176 l -17.096761121678682 7.647163787704673 a39.72907778956896,39.72907778956896 0 0,0 -0.2731206062631414,-0.6249533965104993 l 17.22551560995879 -7.3525483214183245" fill="#ffe215" stroke="none" /><path d="M 80.68587082218212 108.24405325689762 l -7.8073081809445695 3.3324756112038885 a29.48878405494643,29.48878405494643 0 0,0 -0.1947301059269356,-0.4672813652186895 l 7.863364131407991 -3.1979617365439177" fill="#ff5808" stroke="none" /><path d="M 80.5471966667186 107.91128576633889 l -7.055648636696094 2.869470876533372 a28.6168261628965,28.6168261628965 0 0,0 -0.18115994230283514,-0.4566413970363261 l 7.103867253965053 -2.7479284622834808" fill="#ff4c07" stroke="none" /><path d="M 80.41425534168474 107.57618678355246 l -17.98825173541361 6.958242202917499 a40.287154664467046,40.287154664467046 0 0,0 -0.24396618617820623,-0.647149293764245 l 18.105048605406253 -6.648424628959109" fill="#ffe915" stroke="none" /><path d="M 80.28708602549918 107.23885506374661 l -4.525039130026186 1.6616570468684881 a25.820485791875736,25.820485791875736 0 0,0 -0.14921760786118185,-0.4173882064573759 l 4.552896907931311 -1.5837338840301907" fill="#ff2403" stroke="none" /><path d="M 80.16572619554312 106.89939002012753 l -7.857945101954098 2.733401209927315 a29.31978265339645,29.31978265339645 0 0,0 -0.1612791587046147,-0.4767931752817338 l 7.90370968223108 -2.5981063601714194" fill="#ff5608" stroke="none" /><path d="M 80.05021161711548 106.5578916946017 l -20.6546036093125 6.789578458937813 a42.74191863446962,42.74191863446962 0 0,0 -0.22314392370073924,-0.6989951627866579 l 20.768112248790494 -6.434014262459763" fill="#f6ff19" stroke="none" /><path d="M 79.94057633289273 106.21446072829308 l -9.332899522255179 2.891356128903379 a30.77051450828758,30.77051450828758 0 0,0 -0.1519824285800615,-0.5059000751370372 l 9.38115827083887 -2.7307184501756185" fill="#ff6a09" stroke="none" /><path d="M 79.83685265289637 105.86919833188381 l -30.276816939942883 8.81314015215934 a52.533428030526835,52.533428030526835 0 0,0 -0.24460941949127146,-0.8680325360383365 l 30.42364485150873 -8.29209969221801" fill="#84ff25" stroke="none" /><path d="M 79.73907114497094 105.5222062557868 l -7.358816786952645 2.005678238488664 a28.627249156824696,28.627249156824696 0 0,0 -0.12515631467715982,-0.4752389124879208 l 7.392162582434538 -1.8790588216279407" fill="#ff4c07" stroke="none" /><path d="M 79.64726062577567 105.17358676015961 l -14.014572798503584 3.5624496018189875 a35.46026617632113,35.46026617632113 0 0,0 -0.14490157861813,-0.591247888546917 l 14.073661903638007 -3.321345888663971" fill="#ffaa0f" stroke="none" /><path d="M 79.56144815229197 104.8234425847677 l -8.103289731694948 1.9123543125660016 a29.32588754984011,29.32588754984011 0 0,0 -0.11142320484088095,-0.49095119948994076 l 8.134923798093496 -1.7729687791370345" fill="#ff5608" stroke="none" /><path d="M 79.48165901384964 104.47187691870673 l -23.443844795696755 5.1094768577237115 a44.99417872243874,44.99417872243874 0 0,0 -0.15799874945572379,-0.7560812123367963 l 23.528101255976846 -4.706279194101507" fill="#dbff1b" stroke="none" /><path d="M 79.407916724674 104.11899336999214 l -7.483035052531415 1.4968165851256114 a28.631269454482716,28.631269454482716 0 0,0 -0.0922659124120701,-0.48277424160344484 l 7.507627257225642 -1.368139778488852" fill="#ff4c07" stroke="none" /><path d="M 79.34024301695615 103.76489593502545 l -13.019949235126576 2.3726684679687744 a34.234373190452445,34.234373190452445 0 0,0 -0.10039667242728449,-0.5790613271831041 l 13.058760725046096 -2.1488141078650775" fill="#ff9a0e" stroke="none" /><path d="M 79.2786578344484 103.40968896794605 l -47.319844136717585 7.786462345384338 a68.95619506361335,68.95619506361335 0 0,0 -0.18217080047389672,-1.1696672195571087 l 47.44653642932975 -6.973006943895779" fill="#3aff92" stroke="none" /><path d="M 79.22317932658666 103.0534771498775 l -3.6490536447185336 0.5362852237100584 a24.68825085144752,24.68825085144752 0 0,0 -0.058023836008541815,-0.4198315728162429 l 3.657721997282288 -0.47356534269372985" fill="#ff1302" stroke="none" /><path d="M 79.17382384314188 102.69636545807758 l -23.780213674620196 3.0788247566433404 a44.978693131459714,44.978693131459714 0 0,0 -0.09256596570993283,-0.766578984546262 l 23.829561726589787 -2.670152095173679" fill="#dbff1b" stroke="none" /><path d="M 79.13060592940153 102.33845913500099 l -7.509969117716111 0.8415077039366523 a28.556968397766028,28.556968397766028 0 0,0 -0.0504065950705646,-0.4876380821308638 l 7.523308105268342 -0.7124650995228571" fill="#ff4b07" stroke="none" /><path d="M 79.0935383218832 101.97986365728391 l -8.28702349300365 0.7847897407732856 a29.324100750880987,29.324100750880987 0 0,0 -0.04315722485029477,-0.5015523711596189 l 8.299274340551685 -0.6424163222380047" fill="#ff5608" stroke="none" /><path d="M 79.06263194458094 101.62068470465958 l -19.158966263950674 1.4830251586009184 a40.21627830575534,40.21627830575534 0 0,0 -0.04737102009369878,-0.6887642356525682 l 19.18160124520944 -1.153917498794007" fill="#ffe815" stroke="none" /><path d="M 79.03789590574601 101.26102812881392 l -9.587605051516642 0.5767665117756479 a30.604937804742583,30.604937804742583 0 0,0 -0.027046619068403447,-0.5246971843646746 l 9.596093260041618 -0.4120975340342425" fill="#ff6809" stroke="none" /><path d="M 79.01933749520258 100.90099992219065 l -34.29012322305076 1.4725654325172997 a55.32172780623158,55.32172780623158 0 0,0 -0.032601128451299324,-0.9491462839082939 l 34.310349038498906 -0.8837128840448858" fill="#66ff29" stroke="none" /><path d="M 79.00696218219943 100.54070618675478 l -7.7594302219846645 0.1998553979244251 a28.762003578324897,28.762003578324897 0 0,0 -0.008475982214470289,-0.49368347108173144 l 7.7617176357978 -0.06662501087364128" fill="#ff4e07" stroke="none" /><line stroke="#e1ed5e" stroke-width="0.3" x1="15.003131293944662" x2="10.003315487706104" y1="100.72959589197737" y2="100.7725132973878" /><path d="M 14.003168132696942 100.73817937305945 a86.0,86.0 0 0,1 10.791469493833604,-42.45332614584628" fill="none" id="id94" stroke="none" /><text fill="#e1ed5e" style="font-size:6.75px; font-family:Arial;" text-anchor="middle"><textPath startOffset="22.145653131862435" xlink:href="#id94">October</textPath></text><path d="M 79.00077361379809 100.18025310272382 l -19.179686844897425 0.16463454412471426 a40.1803934266597,40.1803934266597 0 0,0 0.0,-0.6897752936970566 l 19.179686844897425 0.1646345441247072" fill="#ffe815" stroke="none" /><path d="M 79.00077361379809 99.81974689727619 l -12.002528733321125 -0.10302727371587544 a33.00297090779314,33.00297090779314 0 0,0 0.00972576871000538,-0.5664772688522706 l 11.998991533012452 0.30905145853719834" fill="#ff890c" stroke="none" /><path d="M 79.00696218219943 99.45929381324524 l -24.23063647270759 -0.6240952435520936 a45.23867238001149,45.23867238001149 0 0,0 0.026659177645217993,-0.7761528694263558 l 24.21635260806552 1.039954377542588" fill="#d8ff1c" stroke="none" /><path d="M 79.01933749520258 99.09900007780938 l -3.4004201118970507 -0.1460286707120955 a24.403554217294605,24.403554217294605 0 0,0 0.021566246565876072,-0.41837942190889305 l 3.3974122758746046 0.20437988599770052" fill="#ff0f01" stroke="none" /><path d="M 79.03789590574601 98.7389718711861 l -25.974344959971063 -1.5625520928034022 a47.02130214155891,47.02130214155891 0 0,0 0.05538670265918439,-0.8053105009541898 l 25.943694296146816 2.0082060179119168" fill="#c3ff1e" stroke="none" /><path d="M 79.06263194458094 98.37931529534042 l -9.663137988352355 -0.7479879942543337 a30.69204425399962,30.69204425399962 0 0,0 0.045170471423413204,-0.5249493480500401 l 9.6488738942312 0.9137583896800544" fill="#ff6909" stroke="none" /><path d="M 79.0935383218832 98.0201363427161 l -7.499590236084014 -0.7102189926517228 a28.533144411644443,28.533144411644443 0 0,0 0.05036454277689743,-0.4872312643363942 l 7.486293300825452 0.8388547792710297" fill="#ff4b07" stroke="none" /><path d="M 79.13060592940154 97.66154086499901 l -16.812345547910457 -1.8838583858403823 a37.91756144484913,37.91756144484913 0 0,0 0.07803418570320075,-0.6462349998455061 l 16.777529275947586 2.172187062609325" fill="#ffcb12" stroke="none" /><path d="M 79.17382384314186 97.30363454192245 l -12.052467165772429 -1.5604331734081207 a33.15306202035911,33.15306202035911 0 0,0 0.0779183525566667,-0.5637783841161212 l 12.023904296660554 1.767099865724309" fill="#ff8b0c" stroke="none" /><path d="M 79.22317932658666 96.9465228501225 l -20.764249582940344 -3.0516296324872343 a41.987293874068484,41.987293874068484 0 0,0 0.11092344825168476,-0.7122081088885918 l 20.708804642550394 3.4076259233072763" fill="#fffe18" stroke="none" /><path d="M 79.2786578344484 96.59031103205396 l -7.461393376095461 -1.2277694406433297 a28.561733194990342,28.561733194990342 0 0,0 0.08376093102626617,-0.4831107915582738 l 7.4392176275769595 1.3556732651221963" fill="#ff4b07" stroke="none" /><path d="M 79.34024301695615 96.23510406497455 l -12.737374983322937 -2.3211740262465588 a33.94714525777411,33.94714525777411 0 0,0 0.10939662790617567,-0.5724093838199663 l 12.6956520631346 2.5394859750998395" fill="#ff960d" stroke="none" /><path d="M 79.407916724674 95.88100663000787 l -37.73609994794055 -7.548276850704743 a59.48362928175881,59.48362928175881 0 0,0 0.20887899960531525,-0.9995616281604858 l 37.60096323751087 8.194954930150638" fill="#3bff2e" stroke="none" /><path d="M 79.48165901384962 95.52812308129327 l -3.944090853535922 -0.8595962444095592 a25.036676648475666,25.036676648475666 0 0,0 0.09512642186863249,-0.4191445667559537 l 3.928753570109628 0.927175145104521" fill="#ff1802" stroke="none" /><path d="M 79.56144815229197 95.17655741523228 l -14.36828219165103 -3.3908754744255987 a35.762979699978494,35.762979699978494 0 0,0 0.14613855939059858,-0.5962951922193142 l 14.307956105744132 3.6370264912530303" fill="#ffae10" stroke="none" /><path d="M 79.64726062577567 94.8264132398404 l -10.904392258588137 -2.77185387083887 a32.251175245743944,32.251175245743944 0 0,0 0.14099986399854916,-0.5353994498836281 l 10.855202913784861 2.9586338250952826" fill="#ff7f0b" stroke="none" /><path d="M 79.73907114497095 94.47779374421319 l -20.888960520920595 -5.69337907905832 a42.65094078746783,42.65094078746783 0 0,0 0.19859396688744368,-0.7047399281587199 l 20.78814806195857 6.051126931120053" fill="#f7ff18" stroke="none" /><path d="M 79.83685265289637 94.1308016681162 l -11.517788621621992 -3.352660405704198 a32.99582371195666,32.99582371195666 0 0,0 0.16297372666264956,-0.5424865317280089 l 11.458538574955714 3.54988454102293" fill="#ff890c" stroke="none" /><path d="M 79.94057633289273 93.78553927170692 l -12.756963393430333 -3.952139868840891 a34.355131020106214,34.355131020106214 0 0,0 0.17935878828090063,-0.5618388497092344 l 12.687239889372176 4.170547752241517" fill="#ff9c0e" stroke="none" /><path d="M 80.05021161711548 93.44210830539832 l -31.85785569955651 -10.472309945862841 a54.53494066456631,54.53494066456631 0 0,0 0.29998003240206983,-0.8868376628381116 l 31.673390245582077 11.017649283175114" fill="#6eff28" stroke="none" /><path d="M 80.16572619554312 93.10060997987247 l -4.369228428232841 -1.519844452617839 a25.626022505158318,25.626022505158318 0 0,0 0.14809379684171892,-0.41424470702366933 l 4.3424944613471785 1.5946241160224297" fill="#ff2103" stroke="none" /><path d="M 80.28708602549916 92.7611449362534 l -20.399157064080487 -7.490853031697485 a42.73104894080164,42.73104894080164 0 0,0 0.25876563208064834,-0.6864065823004181 l 20.267560748185403 7.839927894192048" fill="#f6ff19" stroke="none" /><path d="M 80.41425534168474 92.42381321644754 l -8.998778085578484 -3.4809206792725336 a30.64856547932773,30.64856547932773 0 0,0 0.19402194786710056,-0.48906205314217255 l 8.937697462745252 3.634883749628289" fill="#ff6909" stroke="none" /><path d="M 80.5471966667186 92.08871423366112 l -24.55435793785972 -9.986043611669585 a47.50731145843919,47.50731145843919 0 0,0 0.3137160140400729,-0.7528042293912905 l 24.379316079283168 10.406080350502139" fill="#bdff1f" stroke="none" /><path d="M 80.68587082218212 91.75594674310238 l -7.074919404384466 -3.019862393019034 a28.692467318832527,28.692467318832527 0 0,0 0.19724857724640948,-0.45134334605365334 l 7.022036945121078 3.1408678088485544" fill="#ff4d07" stroke="none" /><path d="M 80.83023694016515 91.42560881287825 l -18.93960067303079 -8.471442479051655 a41.74786281354658,41.74786281354658 0 0,0 0.2982299038634421,-0.6516861618700466 l 18.7913863043123 8.795317623136372" fill="#fffb17" stroke="none" /><path d="M 80.9802524753101 91.09779779509293 l -39.190022032518456 -18.342909131436045 a64.27031479332456,64.27031479332456 0 0,0 0.4762759085375078,-0.9952334694824012 l 38.869366866021046 19.012955102983533" fill="#34ff5b" stroke="none" /><path d="M 81.1358732173502 90.77261029715801 l -3.2309994012925127 -1.5804437146168966 a24.596826304705946,24.596826304705946 0 0,0 0.18878659992896013,-0.37769966298765123 l 3.2033928881518086 1.6356752337683182" fill="#ff1202" stroke="none" /><path d="M 81.29705330413844 90.45014215332179 l -10.31488266377811 -5.266852584573909 a32.581733053180905,32.581733053180905 0 0,0 0.25862438089417866,-0.49594635126742875 l 10.222950213908991 5.443145178945825" fill="#ff830c" stroke="none" /><path d="M 81.46374523516351 90.13048839642627 l -15.586115296174425 -8.298728503777573 a38.657742913664045,38.657742913664045 0 0,0 0.31691001028388055,-0.5830787246039933 l 15.441359936275195 8.565062061856187" fill="#ffd413" stroke="none" /><path d="M 81.63589988554816 89.8137432299009 l -10.722544507305878 -5.947614688414791 a33.261610057125566,33.261610057125566 0 0,0 0.28124534151500846,-0.49693357004888855 l 10.618865800769502 6.130805028562785" fill="#ff8d0d" stroke="none" /><line stroke="#e1ed5e" stroke-width="0.3" x1="26.387840678322718" x2="22.05771365940052" y1="57.49999999999999" y2="54.99999999999999" /><path d="M 25.521815274538284 56.99999999999999 a86.0,86.0 0 0,1 29.574782752854787,-30.34633250058573" fill="none" id="id95" stroke="none" /><text fill="#e1ed5e" style="font-size:6.75px; font-family:Arial;" text-anchor="middle"><textPath startOffset="21.40746469413373" xlink:href="#id95">November</textPath></text><path d="M 81.81346652052679 89.5 l -20.914838028348075 -12.075187365724187 a45.150374731448366,45.150374731448366 0 0,0 0.39329478742257185,-0.6679005314967537 l 20.704469530795723 12.432439065514512" fill="#d9ff1c" stroke="none" /><path d="M 81.99639281039701 89.18935116829357 l -11.077692866558904 -6.65183627840019 a33.921385572780146,33.921385572780146 0 0,0 0.304051974040851,-0.49664604920277633 l 10.96187292806266 6.84101944372751" fill="#ff960d" stroke="none" /><path d="M 82.18462484594161 88.88188828441811 l -42.85487371171233 -26.74461072886423 a71.51548677272439,71.51548677272439 0 0,0 0.6589038792992785,-1.0359063392838606 l 42.389452140787164 27.47633074282676" fill="#3dffae" stroke="none" /><path d="M 82.37810715431573 88.57770195909679 l -3.2646292955051504 -2.1160932672142656 a24.890456933654452,24.890456933654452 0 0,0 0.23548216651491566,-0.35655001347515686 l 3.2278226900695057 2.171823159028483" fill="#ff1602" stroke="none" /><path d="M 82.576782715395 88.27688183743585 l -9.448620744204916 -6.357453715247074 a32.388312065856304,32.388312065856304 0 0,0 0.3143366860119017,-0.45862661895703577 l 9.338094321377701 6.518715069274144" fill="#ff810b" stroke="none" /><path d="M 82.78059297857968 87.97951657250589 l -16.49400750699996 -11.514098229063347 a41.115335982018564,41.115335982018564 0 0,0 0.4089701383576682,-0.5752677163336448 l 16.29392227011232 11.795543172106512" fill="#fff316" stroke="none" /><path d="M 82.98947788004972 87.6856937992154 l -16.10733452869075 -11.660468036553604 a40.88498781620551,40.88498781620551 0 0,0 0.4164388725345969,-0.5649793099943919 l 15.904793636572336 11.93525365581686" fill="#fff116" stroke="none" /><path d="M 83.2033758604659 87.39550010848427 l -9.293894096544975 -6.974311394867537 a32.619702531062174,32.619702531062174 0 0,0 0.33994082848636537,-0.4449934567358432 l 9.172801290704303 7.132825764844265" fill="#ff840c" stroke="none" /><path d="M 83.42222388311158 87.10902102172516 l -8.588606326587277 -6.6785522272752145 a31.879669962160513,31.879669962160513 0 0,0 0.33964535002872204,-0.42913080442309204 l 8.472694545916994 6.82500297561299" fill="#ff7a0b" stroke="none" /><path d="M 83.64595745247003 86.82634096563983 l -23.69657292527225 -19.08828175621543 a51.42844177422519,51.42844177422519 0 0,0 0.5597206642428613,-0.6827682010693285 l 23.36540544179076 19.49225223898325" fill="#90ff24" stroke="none" /><path d="M 83.8745106332314 86.54754324733833 l -9.234568940870899 -7.703805849300098 a33.026050394348424,33.026050394348424 0 0,0 0.36691224299473774,-0.4322216996600888 l 9.100962134369047 7.861194331409743" fill="#ff8a0c" stroke="none" /><path d="M 84.10781606972428 86.27271002978789 l -8.446498770126476 -7.295884464921024 a32.16123969813497,32.16123969813497 0 0,0 0.3644771055967533,-0.4147080400296551 l 8.32001060057113 7.439804782761979" fill="#ff7e0b" stroke="none" /><path d="M 84.34580500576568 86.00192230759919 l -8.221335483520141 -7.351568884634019 a32.02886767524692,32.02886767524692 0 0,0 0.37001318749745454,-0.406709309829729 l 8.093924595180821 7.491615770021406" fill="#ff7c0b" stroke="none" /><path d="M 84.58840730492382 85.73525988315684 l -11.538178052301943 -10.679565350214263 a36.72204404128545,36.72204404128545 0 0,0 0.4321732837182575,-0.4589530508061497 l 11.353148934847413 10.876059860964924" fill="#ffbb11" stroke="none" /><path d="M 84.83555147118756 85.47280134310135 l -6.941476199339695 -6.64977717642321 a30.612680600232096,30.612680600232096 0 0,0 0.36678830910348426,-0.3763571174265876 l 6.8263010890854074 6.767956985917528" fill="#ff6809" stroke="none" /><path d="M 85.08716467003674 85.21462403516908 l -6.817419009537042 -6.759150821122812 a30.60017300751826,30.60017300751826 0 0,0 0.37304245406406056,-0.36985407617948135 l 6.700384635343005 6.875184907530967" fill="#ff6809" stroke="none" /><path d="M 85.34317274990677 84.96080404539775 l -1.683046331379781 -1.7269538042848906 a23.411434095243948,23.411434095243948 0 0,0 0.2902209733496765,-0.2780251274049747 l 1.653152872164804 1.7555910619954338" fill="#ff0000" stroke="none" /><path d="M 85.60350026404147 84.71141617570332 l -4.0679095466896955 -4.319978969532575 a26.93381044331995,26.93381044331995 0 0,0 0.3393278280178949,-0.314076771743039 l 3.9931519473578474 4.389173487407979" fill="#ff3404" stroke="none" /><path d="M 85.86807049272753 84.46653392183569 l -8.135705153241465 -8.94256512918411 a33.089630657310394,33.089630657310394 0 0,0 0.42344480986267513,-0.3786469600694736 l 7.980995316555398 9.080907619136985" fill="#ff8a0c" stroke="none" /><path d="M 86.13680546590413 84.22622945171909 l -3.1922801707099517 -3.63222883547957 a25.835673583028246,25.835673583028246 0 0,0 0.33564294798090455,-0.28992038436033707 l 3.1294577429661987 3.686493352304618" fill="#ff2403" stroke="none" /><path d="M 86.40962598614128 83.9905735841838 l -5.157688638826297 -6.07574424771377 a28.96971895732245,28.96971895732245 0 0,0 0.38188389235729303,-0.31858112517574294 l 5.052630412307095 6.1633875568013945" fill="#ff5107" stroke="none" /><path d="M 86.68645165197937 83.75963576809568 l -6.1925968733156225 -7.553961283277995 a30.7678343098489,30.7678343098489 0 0,0 0.41133551334892976,-0.33134277264068235 l 6.062010589611448 7.659152349712076" fill="#ff6a09" stroke="none" /><path d="M 86.96720088162412 83.53348406188908 l -11.286705966532814 -14.260384281120173 a39.186486505649924,39.186486505649924 0 0,0 0.53105163639015,-0.41294896449408813 l 11.04024438550742 14.452034297235066" fill="#ffdb14" stroke="none" /><path d="M 87.25179093698888 83.31218511350988 l -9.749734645851051 -12.762715622105706 a37.06064244403845,37.06064244403845 0 0,0 0.5088726417993237,-0.38186751725057594 l 9.529209015140975 12.928202166620283" fill="#ffbf11" stroke="none" /><path d="M 87.54013794807813 83.09580414077388 l -5.145907154557827 -6.981411355242177 a29.67297324764892,29.67297324764892 0 0,0 0.4126224603323199,-0.29870684074382065 l 5.02530368385154 7.068718967359077" fill="#ff5b08" stroke="none" /><path d="M 87.83215693770416 82.88440491214696 l -5.196388498607279 -7.309371184851359 a29.968241775643282,29.968241775643282 0 0,0 0.42184568465578987,-0.2944810500766365 l 5.070147722777723 7.397497050733121" fill="#ff5f08" stroke="none" /><path d="M 88.12776184653039 82.6780497279521 l -4.886804177364974 -7.129993338687683 a29.643937764563237,29.643937764563237 0 0,0 0.4222196105144143,-0.2840881970166244 l 4.76368827875357 7.212831209761417" fill="#ff5b08" stroke="none" /><path d="M 88.4268655584334 82.4767994020092 l -3.089520838129125 -4.677928323701464 a26.606081734234927,26.606081734234927 0 0,0 0.38327247590237945,-0.2484325883132379 l 3.0087627299697197 4.730274753718609" fill="#ff2f04" stroke="none" /><path d="M 88.72937992617638 82.28071324371311 l -8.617128424239969 -13.54755714989316 a37.05587764681413,37.05587764681413 0 0,0 0.5396674582655111,-0.3367924075903198 l 8.383296837184758 13.693485354325016" fill="#ffbf11" stroke="none" /><path d="M 89.03521579738668 82.08984904055464 l -2.5996538963348232 -4.246339268087915 a25.978915299584262,25.978915299584262 0 0,0 0.38234436853668596,-0.2295868076602827 l 2.526376771240703 4.290340076284122" fill="#ff2603" stroke="none" /><line stroke="#e1ed5e" stroke-width="0.3" x1="56.869717070023135" x2="54.33264160355391" y1="26.7553504044142" y2="22.446841604673864" /><path d="M 56.362301976729285 25.89364864446614 a86.0,86.0 0 0,1 42.16139366436587,-11.88097634709845" fill="none" id="id96" stroke="none" /><text fill="#e1ed5e" style="font-size:6.75px; font-family:Arial;" text-anchor="middle"><textPath startOffset="22.145653131862474" xlink:href="#id96">December</textPath></text><path d="M 89.34428304082924 81.90426304109057 l -5.147951662337955 -8.74234737238157 a31.145444489875988,31.145444489875988 0 0,0 0.4630401124559569,-0.26733633357203984 l 4.997119082021599 8.829430603229783" fill="#ff700a" stroke="none" /><path d="M 89.65649057296885 81.72400993836675 l -5.463490460479025 -9.653464142121676 a32.092299038295636,32.092299038295636 0 0,0 0.48177541844071514,-0.2672327033273528 l 5.296970853882207 9.745829760882174" fill="#ff7d0b" stroke="none" /><path d="M 89.97174638481275 81.54914285379989 l -4.0519213921535355 -7.455078984144852 a29.485061557114932,29.485061557114932 0 0,0 0.4467845883188411,-0.23788762803776445 l 3.9233479880481323 7.523537079905192" fill="#ff5808" stroke="none" /><path d="M 90.28995756902619 81.37971332152246 l -7.056174231799194 -13.531144480921705 a36.26045431017979,36.26045431017979 0 0,0 0.554392609871292,-0.28307681680402347 l 6.822854400214319 13.650279249398563" fill="#ffb510" stroke="none" /><path d="M 90.61103034731259 81.2157712731953 l -3.3724158750883717 -6.747090842011089 a28.5429718059196,28.5429718059196 0 0,0 0.44015947023567853,-0.21530405356460336 l 3.25609615559064 6.803988645672907" fill="#ff4b07" stroke="none" /><path d="M 90.93487009805054 81.0573650232925 l -3.5108864189401854 -7.336402301787388 a29.13321106208181,29.13321106208181 0 0,0 0.45296772442536754,-0.21201176671228994 l 3.3844299806432954 7.395590300070221" fill="#ff5307" stroke="none" /><path d="M 91.26138138417902 80.90454125486306 l -3.5968940135169696 -7.859862555552274 a29.643788864649977,29.643788864649977 0 0,0 0.464541600187341,-0.2077835490331887 l 3.4614390104740096 7.920449855495309" fill="#ff5b08" stroke="none" /><path d="M 91.5904679813234 80.7573450057729 l -9.422166855318114 -21.559761671905783 a44.528717593588325,44.528717593588325 0 0,0 0.703055281032153,-0.3000924932214311 l 9.050676499115529 21.718328814786616" fill="#e0ff1b" stroke="none" /><path d="M 91.92203290615298 80.6158196554323 l -1.882280905158518 -4.5167889520768805 a25.893297849459824,25.893297849459824 0 0,0 0.41175958580448857,-0.1674590389116512 l 1.8044668581635888 4.548435247567824" fill="#ff2503" stroke="none" /><path d="M 92.25597844496254 80.48000691201159 l -4.4310827065984055 -11.169223018089513 a33.016074100160004,33.016074100160004 0 0,0 0.5286152331448943,-0.20447972812902626 l 4.238695210959982 11.24364263435658" fill="#ff890c" stroke="none" /><path d="M 92.592206182469 80.34994680014964 l -5.31965467069996 -14.11101602702636 a36.08043431504858,36.08043431504858 0 0,0 0.5814290659639588,-0.21350880665369829 l 5.076636453081874 14.200255682688779" fill="#ffb310" stroke="none" /><path d="M 92.93061703081487 80.22567764915836 l -1.6671662282358939 -4.663360657255983 a25.952411115024,25.952411115024 0 0,0 0.42079267553241645,-0.1463735357660904 l 1.586867780658473 4.691292625590659" fill="#ff2603" stroke="none" /><path d="M 93.27111125876988 80.10723608172694 l -2.8571730921446994 -8.446724560538085 a29.91687130556862,29.91687130556862 0 0,0 0.48789753251787593,-0.1603816098150003 l 2.7117528219790623 8.494527091755115" fill="#ff5e08" stroke="none" /><path d="M 93.61358852112211 79.99465700312896 l -3.1520362433383755 -9.873708638271523 a31.36462516219455,31.36462516219455 0 0,0 0.5143191652891571,-0.15933739211755088 l 2.982076445177602 9.926362618195716" fill="#ff730a" stroke="none" /><path d="M 93.95794788825049 79.88797359093562 l -5.953228434925938 -19.81636127725397 a41.69128084650782,41.69128084650782 0 0,0 0.6871914017144972,-0.2000314018042957 l 5.612177020829817 19.91563637336079" fill="#fffb17" stroke="none" /><path d="M 94.30408787586887 79.78721728523814 l -3.3160312508493295 -11.767425073995826 a33.22572517802993,33.22572517802993 0 0,0 0.5503107230643705,-0.1499896346942787 l 3.1135391268502812 11.822615202834244" fill="#ff8c0c" stroke="none" /><path d="M 94.6519064749342 79.69241777938228 l -1.6675164062030554 -6.331831402066 a27.54772478569048,27.54772478569048 0 0,0 0.4583347249430623,-0.11650689477652758 l 1.558576388034615 6.359523528677791" fill="#ff3d05" stroke="none" /><path d="M 95.00130118170881 79.60360301121753 l -1.8243644522059799 -7.444029530896257 a28.66432523522641,28.66432523522641 0 0,0 0.47892333618013117,-0.1130246032978748 l 1.6963089622859426 7.4742502778403646" fill="#ff4d07" stroke="none" /><path d="M 95.35216902796891 79.52079915486377 l -1.9421226616951635 -8.55735079310878 a29.77496968823194,29.77496968823194 0 0,0 0.4994220651534201,-0.10884671462278225 l 1.794938179922625 8.589428965865276" fill="#ff5c08" stroke="none" /><path d="M 95.70440661134978 79.44403061299748 l -1.8753162742824947 -8.974067244574952 a30.167916559324798,30.167916559324798 0 0,0 0.5078316441871219,-0.10158055149210324 l 1.720988144564396 9.00493719272992" fill="#ff6209" stroke="none" /><path d="M 96.05791012581881 79.37332000966035 l -3.2365902975701166 -16.935208089765773 a38.24171655601591,38.24171655601591 0 0,0 0.6458575519907164,-0.11769676061974294 l 2.945398012028362 16.988273024316875" fill="#ffcf13" stroke="none" /><path d="M 96.41257539226777 79.30868818359171 l -1.4493737043834398 -8.359602370810022 a29.484317057548633,29.484317057548633 0 0,0 0.4994397564040988,-0.08218262185717821 l 1.3056564449262682 8.383250991162868" fill="#ff5808" stroke="none" /><path d="M 96.76829788921471 79.25015418208739 l -1.8837382419181934 -12.094950815751439 a33.24076406926918,33.24076406926918 0 0,0 0.5645783816155451,-0.082973579773147 l 1.6758347546949632 12.125505468823471" fill="#ff8c0c" stroke="none" /><path d="M 97.12497278360702 79.19773525538626 l -1.0363682743034406 -7.498644566581311 a28.569922690219638,28.569922690219638 0 0,0 0.4863990946961405,-0.0629741008575425 l 0.907491357716506 7.515330263639249" fill="#ff4b07" stroke="none" /><path d="M 97.48249496171623 79.15144685158666 l -2.4364051792144545 -20.17692997530213 a41.323498060755895,41.323498060755895 0 0,0 0.7049869416875157,-0.07899525727812905 l 2.0896823359261396 20.215780993087233" fill="#fff617" stroke="none" /><path d="M 97.84075906011542 79.11130261209362 l -1.2371735147483673 -11.968531481851493 a33.03230419070533,33.03230419070533 0 0,0 0.5645384950687202,-0.053462382431468475 l 1.0315354562946315 11.988005619788145" fill="#ff8a0c" stroke="none" /><path d="M 98.1996594967304 79.07731436759882 l -1.6494380620012654 -19.168970524572888 a40.239804492050396,40.239804492050396 0 0,0 0.6887349227917337,-0.05331243888815776 l 1.3201341444343146 19.1944607304561" fill="#ffe815" stroke="none" /><path d="M 98.5590905019552 79.04949213459386 l -1.0052647876565821 -14.616329387232687 a35.65085806529379,35.65085806529379 0 0,0 0.6109125060056744,-0.0367509793317221 l 0.7542079295184239 14.631432344389102" fill="#ffad10" stroke="none" /><path d="M 98.9189461498227 79.02784411241856 l -0.9874594214309962 -19.156448973855944 a40.181882425792296,40.181882425792296 0 0,0 0.6891656638255721,-0.029595738902016333 l 0.658467997004604 19.17057728118379" fill="#ffe815" stroke="none" /><path d="M 99.27912038922189 79.0123766808444 l -0.3334202160514138 -9.707165796970285 a30.712890241856,30.712890241856 0 0,0 0.5270722252176891,-0.01357551086771186 l 0.16673467676298073 9.711459025188043" fill="#ff6a09" stroke="none" /><path d="M 99.63950707515114 79.00309439819443 l -0.4933384396681427 -28.73449084138628 a49.738725558551934,49.738725558551934 0 0,0 0.8538313645169878,-0.007329115360089364 l 7.038957653370971e-15 28.738725558551934" fill="#a3ff21" stroke="none" /></svg>